<svg xmlns="http://www.w3.org/2000/svg" version="1.1" width="3300" height="2000"><g id="Notes"><style>
    text {
      font-family: monospace;
      text-anchor: middle;
    }
    text.emphasis {
      font-weight:bold;
    }
    text.lanchor {
      text-anchor: start;
    }
  </style><rect height="2200" id="artboard" fill="white" width="3300" x="0" y="0"/><line id="" style="fill:none;stroke:black;stroke-width:0.5;" x1="263" x2="3036" y1="292" y2="292"/><text class="lanchor emphasis" transform="matrix(1 0 0 1 263 322)">Weight/Scale Variations</text><text transform="matrix(1 0 0 1 559.711 322)">Ultralight</text><text transform="matrix(1 0 0 1 856.422 322)">Thin</text><text transform="matrix(1 0 0 1 1153.13 322)">Light</text><text transform="matrix(1 0 0 1 1449.84 322)">Regular</text><text transform="matrix(1 0 0 1 1746.56 322)">Medium</text><text transform="matrix(1 0 0 1 2043.27 322)">Semibold</text><text transform="matrix(1 0 0 1 2339.98 322)">Bold</text><text transform="matrix(1 0 0 1 2636.69 322)">Heavy</text><text transform="matrix(1 0 0 1 2933.4 322)">Black</text><text id="template-version" style="text-anchor: end;" transform="matrix(1 0 0 1 3036 1933)">Template v.1.0</text><text class="lanchor" transform="matrix(1 0 0 1 263 726)">Small</text><text class="lanchor" transform="matrix(1 0 0 1 263 1156)">Medium</text><text class="lanchor" transform="matrix(1 0 0 1 263 1586)">Large</text></g><g id="Guides"><g id="H-reference" style="fill:#27AAE1;stroke:none;" transform="matrix(1 0 0 1 339 696)"><path d="M 54.9316 0 L 57.666 0 L 30.5664 -70.459 L 28.0762 -70.459 L 0.976562 0 L 3.66211 0 L 12.9395 -24.4629 L 45.7031 -24.4629 Z M 29.1992 -67.0898 L 29.4434 -67.0898 L 44.8242 -26.709 L 13.8184 -26.709 Z"/></g><line id="Baseline-S" style="fill:none;stroke:#27AAE1;opacity:1;stroke-width:0.577;" x1="263" x2="3036" y1="696" y2="696"/><line id="Capline-S" style="fill:none;stroke:#27AAE1;opacity:1;stroke-width:0.577;" x1="263" x2="3036" y1="625.541" y2="625.541"/><g id="H-reference" style="fill:#27AAE1;stroke:none;" transform="matrix(1 0 0 1 339 1126)"><path d="M 54.9316 0 L 57.666 0 L 30.5664 -70.459 L 28.0762 -70.459 L 0.976562 0 L 3.66211 0 L 12.9395 -24.4629 L 45.7031 -24.4629 Z M 29.1992 -67.0898 L 29.4434 -67.0898 L 44.8242 -26.709 L 13.8184 -26.709 Z"/></g><line id="Baseline-M" style="fill:none;stroke:#27AAE1;opacity:1;stroke-width:0.577;" x1="263" x2="3036" y1="1126" y2="1126"/><line id="Capline-M" style="fill:none;stroke:#27AAE1;opacity:1;stroke-width:0.577;" x1="263" x2="3036" y1="1055.54" y2="1055.54"/><g id="H-reference" style="fill:#27AAE1;stroke:none;" transform="matrix(1 0 0 1 339 1556)"><path d="M 54.9316 0 L 57.666 0 L 30.5664 -70.459 L 28.0762 -70.459 L 0.976562 0 L 3.66211 0 L 12.9395 -24.4629 L 45.7031 -24.4629 Z M 29.1992 -67.0898 L 29.4434 -67.0898 L 44.8242 -26.709 L 13.8184 -26.709 Z"/></g><line id="Baseline-L" style="fill:none;stroke:#27AAE1;opacity:1;stroke-width:0.577;" x1="263" x2="3036" y1="1556" y2="1556"/><line id="Capline-L" style="fill:none;stroke:#27AAE1;opacity:1;stroke-width:0.577;" x1="263" x2="3036" y1="1485.54" y2="1485.54"/><rect height="119.336" id="left-margin" style="fill:darkred;stroke:none;opacity:0.4;" width="12.4512" x="1394.06" y="1030.79"/><rect height="119.336" id="right-margin" style="fill:darkgreen;stroke:none;opacity:0.4;" width="12.4512" x="1502.5112" y="1030.79"/><rect x="1406.5112" y="1045" width="96" height="96" fill="none" stroke="blue" stroke-dasharray="5"/><rect x="1394.06" y="1030.79" width="120.9024" height="119.336" fill="none" stroke="blue"/></g><g id="Symbols"><g id="Bold-L" transform="matrix(1 0 0 1 2266 1556)"><path d="M30.47625 26.85125000000002 Q24.1794375 26.85125000000002 19.74909375 22.42090625 Q15.31875 17.99056250000001 15.31875 11.693750000000023 V-82.15374999999997 Q15.31875 -88.51715875 19.74909375 -92.99474874999999 Q24.1794375 -97.47249999999998 30.47625 -97.47249999999998 H124.32375 Q130.68715875 -97.47249999999998 135.16474875 -92.99474874999999 Q139.6425 -88.51715875 139.6425 -82.15374999999997 V11.693750000000023 Q139.6425 17.99056250000001 135.16474875 22.42090625 Q130.68715875 26.85125000000002 124.32375 26.85125000000002 H30.47625 Z M30.47625 11.693750000000023 H124.32375 Q124.32375 11.693750000000023 124.32375 11.693750000000023 Q124.32375 11.693750000000023 124.32375 11.693750000000023 V-9.591249999999988 H102.2325 Q98.04 -3.141249999999985 91.348125 0.3256250000000307 Q84.65625 3.792500000000018 77.4 3.792500000000018 Q70.14375 3.792500000000018 63.451875 0.3256250000000307 Q56.760000000000005 -3.141249999999985 52.5675 -9.591249999999988 H30.47625 V11.693750000000023 Q30.47625 11.693750000000023 30.47625 11.693750000000023 Q30.47625 11.693750000000023 30.47625 11.693750000000023 Z M77.4396675 -5.882499999999979 Q84.01125 -5.882499999999979 89.3325 -9.591249999999988 Q94.65375 -13.299999999999983 98.39475000000002 -19.266249999999985 H124.32375 V-82.15374999999997 Q124.32375 -82.15374999999997 124.32375 -82.15374999999997 Q124.32375 -82.15374999999997 124.32375 -82.15374999999997 H30.47625 Q30.47625 -82.15374999999997 30.47625 -82.15374999999997 Q30.47625 -82.15374999999997 30.47625 -82.15374999999997 V-19.266249999999985 H56.4375 Q60.14625 -13.299999999999983 65.5071675 -9.591249999999988 Q70.86824625 -5.882499999999979 77.4396675 -5.882499999999979 Z"/></g><g id="Semibold-L" transform="matrix(1 0 0 1 1970.27 1556)"><path d="M29.84527875 25.09862375 Q24.603525 25.09862375 20.83753125 21.332468750000004 Q17.07137625 17.566475000000025 17.07137625 12.32472125000001 V-82.78472124999999 Q17.07137625 -88.06404624999999 20.83753125 -91.85696875 Q24.603525 -95.64972999999998 29.84527875 -95.64972999999998 H124.95472125 Q130.23404625 -95.64972999999998 134.02696875 -91.85696875 Q137.81973000000002 -88.06404624999999 137.81973000000002 -82.78472124999999 V12.32472125000001 Q137.81973000000002 17.566475000000025 134.02696875 21.332468750000004 Q130.23404625 25.09862375 124.95472125 25.09862375 H29.84527875 Z M29.84527875 12.32472125000001 H124.95472125 Q124.95472125 12.32472125000001 124.95472125 12.32472125000001 Q124.95472125 12.32472125000001 124.95472125 12.32472125000001 V-9.24069249999998 H102.2325 Q98.04 -2.7906924999999916 91.348125 0.6761825000000101 Q84.65625 4.143057500000026 77.4 4.143057500000026 Q70.14375 4.143057500000026 63.451875 0.6761825000000101 Q56.760000000000005 -2.7906924999999916 52.5675 -9.24069249999998 H29.84527875 V12.32472125000001 Q29.84527875 12.32472125000001 29.84527875 12.32472125000001 Q29.84527875 12.32472125000001 29.84527875 12.32472125000001 Z M77.4396675 -5.531942499999985 Q84.01125 -5.531942499999985 89.3325 -9.275844999999975 Q94.65375 -13.019586249999975 98.38072125000001 -18.91569249999999 H124.95472125 V-82.78472124999999 Q124.95472125 -82.78472124999999 124.95472125 -82.78472124999999 Q124.95472125 -82.78472124999999 124.95472125 -82.78472124999999 H29.84527875 Q29.84527875 -82.78472124999999 29.84527875 -82.78472124999999 Q29.84527875 -82.78472124999999 29.84527875 -82.78472124999999 V-18.91569249999999 H56.4375 Q60.14625 -13.019586249999975 65.5071675 -9.275844999999975 Q70.86824625 -5.531942499999985 77.4396675 -5.531942499999985 Z M29.84527875 12.32472125000001 Q29.84527875 12.32472125000001 29.84527875 12.32472125000001 Q29.84527875 12.32472125000001 29.84527875 12.32472125000001 H52.5675 Q56.760000000000005 12.32472125000001 63.451875 12.32472125000001 Q70.14375 12.32472125000001 77.4 12.32472125000001 Q84.65625 12.32472125000001 91.348125 12.32472125000001 Q98.04 12.32472125000001 102.2325 12.32472125000001 H124.95472125 Q124.95472125 12.32472125000001 124.95472125 12.32472125000001 Q124.95472125 12.32472125000001 124.95472125 12.32472125000001 H29.84527875 Z"/></g><g id="Medium-L" transform="matrix(1 0 0 1 1674.31 1556)"><path d="M29.37201 23.783952499999998 Q24.92167125 23.783952499999998 21.65377875 20.51622125 Q18.3860475 17.248328750000013 18.3860475 12.797989999999999 V-83.25798999999998 Q18.3860475 -87.72413124999999 21.65377875 -91.00331124999998 Q24.92167125 -94.28265249999998 29.37201 -94.28265249999998 H125.42799 Q129.89413125 -94.28265249999998 133.17331125 -91.00331124999998 Q136.4526525 -87.72413124999999 136.4526525 -83.25798999999998 V12.797989999999999 Q136.4526525 17.248328750000013 133.17331125 20.51622125 Q129.89413125 23.783952499999998 125.42799 23.783952499999998 H29.37201 Z M29.37201 12.797989999999999 H125.42799 Q125.42799 12.797989999999999 125.42799 12.797989999999999 Q125.42799 12.797989999999999 125.42799 12.797989999999999 V-8.977854999999991 H102.2325 Q98.04 -2.527854999999988 91.348125 0.9390200000000277 Q84.65625 4.405895000000015 77.4 4.405895000000015 Q70.14375 4.405895000000015 63.451875 0.9390200000000277 Q56.760000000000005 -2.527854999999988 52.5675 -8.977854999999991 H29.37201 V12.797989999999999 Q29.37201 12.797989999999999 29.37201 12.797989999999999 Q29.37201 12.797989999999999 29.37201 12.797989999999999 Z M77.4396675 -5.269104999999982 Q84.01125 -5.269104999999982 89.3325 -9.039129999999986 Q94.65375 -12.80931624999998 98.37024000000001 -18.652854999999988 H125.42799 V-83.25798999999998 Q125.42799 -83.25798999999998 125.42799 -83.25798999999998 Q125.42799 -83.25798999999998 125.42799 -83.25798999999998 H29.37201 Q29.37201 -83.25798999999998 29.37201 -83.25798999999998 Q29.37201 -83.25798999999998 29.37201 -83.25798999999998 V-18.652854999999988 H56.4375 Q60.14625 -12.80931624999998 65.5071675 -9.039129999999986 Q70.86824625 -5.269104999999982 77.4396675 -5.269104999999982 Z M29.37201 12.797989999999999 Q29.37201 12.797989999999999 29.37201 12.797989999999999 Q29.37201 12.797989999999999 29.37201 12.797989999999999 H52.5675 Q56.760000000000005 12.797989999999999 63.451875 12.797989999999999 Q70.14375 12.797989999999999 77.4 12.797989999999999 Q84.65625 12.797989999999999 91.348125 12.797989999999999 Q98.04 12.797989999999999 102.2325 12.797989999999999 H125.42799 Q125.42799 12.797989999999999 125.42799 12.797989999999999 Q125.42799 12.797989999999999 125.42799 12.797989999999999 H29.37201 Z"/></g><g id="Regular-L" transform="matrix(1 0 0 1 1378.56 1556)"><path d="M29.025000000000002 22.82000000000002 Q25.155 22.82000000000002 22.2525 19.917500000000018 Q19.35 17.015000000000015 19.35 13.14500000000001 V-83.60499999999999 Q19.35 -87.475 22.2525 -90.37749999999998 Q25.155 -93.27999999999999 29.025000000000002 -93.27999999999999 H125.775 Q129.645 -93.27999999999999 132.5475 -90.37749999999998 Q135.45000000000002 -87.475 135.45000000000002 -83.60499999999999 V13.14500000000001 Q135.45000000000002 17.015000000000015 132.5475 19.917500000000018 Q129.645 22.82000000000002 125.775 22.82000000000002 H29.025000000000002 Z M29.025000000000002 13.14500000000001 H125.775 Q125.775 13.14500000000001 125.775 13.14500000000001 Q125.775 13.14500000000001 125.775 13.14500000000001 V-8.784999999999982 H102.2325 Q98.04 -2.3349999999999795 91.348125 1.131875000000008 Q84.65625 4.598750000000024 77.4 4.598750000000024 Q70.14375 4.598750000000024 63.451875 1.131875000000008 Q56.760000000000005 -2.3349999999999795 52.5675 -8.784999999999982 H29.025000000000002 V13.14500000000001 Q29.025000000000002 13.14500000000001 29.025000000000002 13.14500000000001 Q29.025000000000002 13.14500000000001 29.025000000000002 13.14500000000001 Z M77.4396675 -5.0762499999999875 Q84.01125 -5.0762499999999875 89.3325 -8.86562499999998 Q94.65375 -12.654999999999987 98.3625 -18.45999999999998 H125.775 V-83.60499999999999 Q125.775 -83.60499999999999 125.775 -83.60499999999999 Q125.775 -83.60499999999999 125.775 -83.60499999999999 H29.025000000000002 Q29.025000000000002 -83.60499999999999 29.025000000000002 -83.60499999999999 Q29.025000000000002 -83.60499999999999 29.025000000000002 -83.60499999999999 V-18.45999999999998 H56.4375 Q60.14625 -12.654999999999987 65.5071675 -8.86562499999998 Q70.86824625 -5.0762499999999875 77.4396675 -5.0762499999999875 Z"/></g><g id="Light-L" transform="matrix(1 0 0 1 1082.77 1556)"><path d="M31.8781575 19.594838750000036 Q28.084106249999998 19.594838750000036 25.32963375 16.840366250000017 Q22.57516125 14.085893750000025 22.57516125 10.29184250000003 V-80.75184249999998 Q22.57516125 -84.54589374999998 25.32963375 -87.30036624999998 Q28.084106249999998 -90.05483874999999 31.8781575 -90.05483874999999 H122.92184250000001 Q126.71589375 -90.05483874999999 129.47036625 -87.30036624999998 Q132.22483875 -84.54589374999998 132.22483875 -80.75184249999998 V10.29184250000003 Q132.22483875 14.085893750000025 129.47036625 16.840366250000017 Q126.71589375 19.594838750000036 122.92184250000001 19.594838750000036 H31.8781575 Z M31.8781575 12.276668750000027 H122.92184250000001 Q123.79017375000001 12.276668750000027 124.34842125 11.718421250000034 Q124.90666875000001 11.160173750000013 124.90666875000001 10.29184250000003 V-10.211578749999973 H100.61983875 Q96.923505 -3.8234987499999846 90.6221775 -0.38774499999998113 Q84.32085 3.0481700000000274 77.3874225 3.0481700000000274 Q70.45383375 3.0481700000000274 64.16508375000001 -0.38774499999998113 Q57.876495 -3.8234987499999846 54.18016125 -10.211578749999973 H29.89333125 V10.29184250000003 Q29.89333125 11.160173750000013 30.451578750000003 11.718421250000034 Q31.00982625 12.276668750000027 31.8781575 12.276668750000027 Z M77.43531375 -4.269999999999982 Q83.88724875 -4.269999999999982 89.1154575 -7.997293749999983 Q94.34366625 -11.724587499999984 97.55625 -17.52958749999999 H124.90666875000001 V-80.75184249999998 Q124.90666875000001 -81.62017374999998 124.34842125 -82.17842124999999 Q123.79017375000001 -82.73666874999998 122.92184250000001 -82.73666874999998 H31.8781575 Q31.00982625 -82.73666874999998 30.451578750000003 -82.17842124999999 Q29.89333125 -81.62017374999998 29.89333125 -80.75184249999998 V-17.52958749999999 H57.24375 Q60.45633375 -11.724587499999984 65.71985625 -7.997293749999983 Q70.98321750000001 -4.269999999999982 77.43531375 -4.269999999999982 Z M31.8781575 12.276668750000027 Q31.00982625 12.276668750000027 30.451578750000003 12.276668750000027 Q29.89333125 12.276668750000027 29.89333125 12.276668750000027 H54.18016125 Q57.876495 12.276668750000027 64.17379125 12.276668750000027 Q70.4710875 12.276668750000027 77.4 12.276668750000027 Q84.3289125 12.276668750000027 90.62620875 12.276668750000027 Q96.923505 12.276668750000027 100.61983875 12.276668750000027 H124.90666875000001 Q124.90666875000001 12.276668750000027 124.34842125 12.276668750000027 Q123.79017375000001 12.276668750000027 122.92184250000001 12.276668750000027 H31.8781575 Z"/></g><g id="Thin-L" transform="matrix(1 0 0 1 787.282 1556)"><path d="M34.730669999999996 16.370000000000033 Q31.01272875 16.370000000000033 28.406283750000004 13.763716250000016 Q25.8 11.157271250000008 25.8 7.439330000000012 V-77.89932999999999 Q25.8 -81.61727124999999 28.406283750000004 -84.22371624999998 Q31.01272875 -86.82999999999998 34.730669999999996 -86.82999999999998 H120.06933000000001 Q123.78727125 -86.82999999999998 126.39371625 -84.22371624999998 Q129.0 -81.61727124999999 129.0 -77.89932999999999 V7.439330000000012 Q129.0 11.157271250000008 126.39371625 13.763716250000016 Q123.78727125 16.370000000000033 120.06933000000001 16.370000000000033 H34.730669999999996 Z M34.730669999999996 11.408498750000007 H120.06933000000001 Q121.80583125 11.408498750000007 122.922165 10.292165000000011 Q124.03849875 9.175831250000016 124.03849875 7.439330000000012 V-11.637834999999981 H99.00750000000001 Q95.8073325 -5.311836249999985 89.89639125 -1.9070424999999886 Q83.98561125 1.4977512500000216 77.37484500000001 1.4977512500000216 Q70.7639175 1.4977512500000216 64.8782925 -1.9070424999999886 Q58.9926675 -5.311836249999985 55.792500000000004 -11.637834999999981 H30.761501250000002 V7.439330000000012 Q30.761501250000002 9.175831250000016 31.877835 10.292165000000011 Q32.99416875 11.408498750000007 34.730669999999996 11.408498750000007 Z M77.43079875 -3.463749999999976 Q83.7632475 -3.463749999999976 88.898415 -7.129123749999977 Q94.03358250000001 -10.794497499999977 96.75 -16.599497499999984 H124.03849875 V-77.89932999999999 Q124.03849875 -79.63583124999998 122.922165 -80.75216499999999 Q121.80583125 -81.86849874999999 120.06933000000001 -81.86849874999999 H34.730669999999996 Q32.99416875 -81.86849874999999 31.877835 -80.75216499999999 Q30.761501250000002 -79.63583124999998 30.761501250000002 -77.89932999999999 V-16.599497499999984 H58.050000000000004 Q60.7664175 -10.794497499999977 65.93238375 -7.129123749999977 Q71.09835000000001 -3.463749999999976 77.43079875 -3.463749999999976 Z M34.730669999999996 11.408498750000007 Q32.99416875 11.408498750000007 31.877835 11.408498750000007 Q30.761501250000002 11.408498750000007 30.761501250000002 11.408498750000007 H55.792500000000004 Q58.9926675 11.408498750000007 64.89554625 11.408498750000007 Q70.79826375 11.408498750000007 77.4 11.408498750000007 Q84.00173625000001 11.408498750000007 89.90445375 11.408498750000007 Q95.8073325 11.408498750000007 99.00750000000001 11.408498750000007 H124.03849875 Q124.03849875 11.408498750000007 122.922165 11.408498750000007 Q121.80583125 11.408498750000007 120.06933000000001 11.408498750000007 H34.730669999999996 Z"/></g><g id="Ultralight-L" transform="matrix(1 0 0 1 491.205 1556)"><path d="M36.4425 14.43500000000003 Q32.77003125 14.43500000000003 30.25259625 11.917565000000025 Q27.735 9.399968750000028 27.735 5.7275000000000205 V-76.18749999999999 Q27.735 -79.85996874999998 30.25259625 -82.37756499999998 Q32.77003125 -84.89499999999998 36.4425 -84.89499999999998 H118.3575 Q122.02996875 -84.89499999999998 124.547565 -82.37756499999998 Q127.065 -79.85996874999998 127.065 -76.18749999999999 V5.7275000000000205 Q127.065 9.399968750000028 124.547565 11.917565000000025 Q122.02996875 14.43500000000003 118.3575 14.43500000000003 H36.4425 Z M36.4425 10.887500000000017 H118.3575 Q120.61500000000001 10.887500000000017 122.06625 9.43625000000003 Q123.5175 7.985000000000014 123.5175 5.7275000000000205 V-12.493749999999977 H98.04 Q95.1375 -6.204999999999984 89.46101625 -2.81874999999998 Q83.78437124999999 0.5675000000000239 77.36726625 0.5675000000000239 Q70.95 0.5675000000000239 65.30625 -2.81874999999998 Q59.6625 -6.204999999999984 56.760000000000005 -12.493749999999977 H31.282500000000002 V5.7275000000000205 Q31.282500000000002 7.985000000000014 32.73375 9.43625000000003 Q34.185 10.887500000000017 36.4425 10.887500000000017 Z M77.4280575 -2.9799999999999756 Q83.68875 -2.9799999999999756 88.768125 -6.608124999999987 Q93.8475 -10.236249999999984 96.26625 -16.041249999999977 H123.5175 V-76.18749999999999 Q123.5175 -78.445 122.06625 -79.89624999999998 Q120.61500000000001 -81.34749999999998 118.3575 -81.34749999999998 H36.4425 Q34.185 -81.34749999999998 32.73375 -79.89624999999998 Q31.282500000000002 -78.445 31.282500000000002 -76.18749999999999 V-16.041249999999977 H58.533750000000005 Q60.9525 -10.236249999999984 66.0599325 -6.608124999999987 Q71.167365 -2.9799999999999756 77.4280575 -2.9799999999999756 Z"/></g><g id="Bold-M" transform="matrix(1 0 0 1 2281.8 1126)"><path d="M26.5 14.02000000000001 Q19.875 14.02000000000001 15.3125 9.45750000000001 Q10.75 4.89500000000001 10.75 -1.7299999999999898 V-68.72999999999999 Q10.75 -75.35499999999999 15.3125 -79.91749999999999 Q19.875 -84.47999999999999 26.5 -84.47999999999999 H93.5 Q100.125 -84.47999999999999 104.6875 -79.91749999999999 Q109.25 -75.35499999999999 109.25 -68.72999999999999 V-1.7299999999999898 Q109.25 4.89500000000001 104.6875 9.45750000000001 Q100.125 14.02000000000001 93.5 14.02000000000001 H26.5 Z M26.5 -1.7299999999999898 H93.5 Q93.5 -1.7299999999999898 93.5 -1.7299999999999898 Q93.5 -1.7299999999999898 93.5 -1.7299999999999898 V-15.97999999999999 H80.0 Q76.25 -11.22999999999999 71.0625 -8.60499999999999 Q65.875 -5.97999999999999 60.0 -5.97999999999999 Q54.125 -5.97999999999999 48.9375 -8.60499999999999 Q43.75 -11.22999999999999 40.0 -15.97999999999999 H26.5 V-1.7299999999999898 Q26.5 -1.7299999999999898 26.5 -1.7299999999999898 Q26.5 -1.7299999999999898 26.5 -1.7299999999999898 Z M60.0 -15.97999999999999 Q64.75 -15.97999999999999 68.625 -18.72999999999999 Q72.5 -21.47999999999999 74.0 -25.97999999999999 H93.5 V-68.72999999999999 Q93.5 -68.72999999999999 93.5 -68.72999999999999 Q93.5 -68.72999999999999 93.5 -68.72999999999999 H26.5 Q26.5 -68.72999999999999 26.5 -68.72999999999999 Q26.5 -68.72999999999999 26.5 -68.72999999999999 V-25.97999999999999 H46.0 Q47.5 -21.47999999999999 51.375 -18.72999999999999 Q55.25 -15.97999999999999 60.0 -15.97999999999999 Z"/></g><g id="Semibold-M" transform="matrix(1 0 0 1 1985.97 1126)"><path d="M25.847875 12.172250000000005 Q20.30975 12.172250000000005 16.45375 8.31625000000001 Q12.59775 4.460250000000016 12.59775 -1.0778749999999917 V-69.38212499999999 Q12.59775 -74.92024999999998 16.45375 -78.77624999999999 Q20.30975 -82.63224999999998 25.847875 -82.63224999999998 H94.152125 Q99.69025 -82.63224999999998 103.54625 -78.77624999999999 Q107.40225 -74.92024999999998 107.40225 -69.38212499999999 V-1.0778749999999917 Q107.40225 4.460250000000016 103.54625 8.31625000000001 Q99.69025 12.172250000000005 94.152125 12.172250000000005 H25.847875 Z M25.847875 -1.0778749999999917 H94.152125 Q94.152125 -1.0778749999999917 94.152125 -1.0778749999999917 Q94.152125 -1.0778749999999917 94.152125 -1.0778749999999917 V-15.653874999999985 H80.0 Q76.25 -10.903874999999985 71.0625 -8.278874999999985 Q65.875 -5.653874999999985 60.0 -5.653874999999985 Q54.125 -5.653874999999985 48.9375 -8.278874999999985 Q43.75 -10.903874999999985 40.0 -15.653874999999985 H25.847875 V-1.0778749999999917 Q25.847875 -1.0778749999999917 25.847875 -1.0778749999999917 Q25.847875 -1.0778749999999917 25.847875 -1.0778749999999917 Z M60.0 -15.653874999999985 Q64.75 -15.653874999999985 68.625 -18.403874999999985 Q72.5 -21.153874999999985 74.0 -25.653874999999985 H94.152125 V-69.38212499999999 Q94.152125 -69.38212499999999 94.152125 -69.38212499999999 Q94.152125 -69.38212499999999 94.152125 -69.38212499999999 H25.847875 Q25.847875 -69.38212499999999 25.847875 -69.38212499999999 Q25.847875 -69.38212499999999 25.847875 -69.38212499999999 V-25.653874999999985 H46.0 Q47.5 -21.153874999999985 51.375 -18.403874999999985 Q55.25 -15.653874999999985 60.0 -15.653874999999985 Z M25.847875 -1.0778749999999917 Q25.847875 -1.0778749999999917 25.847875 -1.0778749999999917 Q25.847875 -1.0778749999999917 25.847875 -1.0778749999999917 H40.0 Q43.75 -1.0778749999999917 48.9375 -1.0778749999999917 Q54.125 -1.0778749999999917 60.0 -1.0778749999999917 Q65.875 -1.0778749999999917 71.0625 -1.0778749999999917 Q76.25 -1.0778749999999917 80.0 -1.0778749999999917 H94.152125 Q94.152125 -1.0778749999999917 94.152125 -1.0778749999999917 Q94.152125 -1.0778749999999917 94.152125 -1.0778749999999917 H25.847875 Z"/></g><g id="Medium-M" transform="matrix(1 0 0 1 1689.91 1126)"><path d="M25.35875 10.786375000000007 Q20.635875 10.786375000000007 17.30975 7.460250000000016 Q13.983625 4.134125000000012 13.983625 -0.5887499999999903 V-69.87124999999999 Q13.983625 -74.59412499999999 17.30975 -77.92024999999998 Q20.635875 -81.24637499999999 25.35875 -81.24637499999999 H94.64125 Q99.364125 -81.24637499999999 102.69025 -77.92024999999998 Q106.016375 -74.59412499999999 106.016375 -69.87124999999999 V-0.5887499999999903 Q106.016375 4.134125000000012 102.69025 7.460250000000016 Q99.364125 10.786375000000007 94.64125 10.786375000000007 H25.35875 Z M25.35875 -0.5887499999999903 H94.64125 Q94.64125 -0.5887499999999903 94.64125 -0.5887499999999903 Q94.64125 -0.5887499999999903 94.64125 -0.5887499999999903 V-15.409374999999983 H80.0 Q76.25 -10.659374999999983 71.0625 -8.034374999999983 Q65.875 -5.409374999999983 60.0 -5.409374999999983 Q54.125 -5.409374999999983 48.9375 -8.034374999999983 Q43.75 -10.659374999999983 40.0 -15.409374999999983 H25.35875 V-0.5887499999999903 Q25.35875 -0.5887499999999903 25.35875 -0.5887499999999903 Q25.35875 -0.5887499999999903 25.35875 -0.5887499999999903 Z M60.0 -15.409374999999983 Q64.75 -15.409374999999983 68.625 -18.159374999999983 Q72.5 -20.909374999999983 74.0 -25.409374999999983 H94.64125 V-69.87124999999999 Q94.64125 -69.87124999999999 94.64125 -69.87124999999999 Q94.64125 -69.87124999999999 94.64125 -69.87124999999999 H25.35875 Q25.35875 -69.87124999999999 25.35875 -69.87124999999999 Q25.35875 -69.87124999999999 25.35875 -69.87124999999999 V-25.409374999999983 H46.0 Q47.5 -20.909374999999983 51.375 -18.159374999999983 Q55.25 -15.409374999999983 60.0 -15.409374999999983 Z M25.35875 -0.5887499999999903 Q25.35875 -0.5887499999999903 25.35875 -0.5887499999999903 Q25.35875 -0.5887499999999903 25.35875 -0.5887499999999903 H40.0 Q43.75 -0.5887499999999903 48.9375 -0.5887499999999903 Q54.125 -0.5887499999999903 60.0 -0.5887499999999903 Q65.875 -0.5887499999999903 71.0625 -0.5887499999999903 Q76.25 -0.5887499999999903 80.0 -0.5887499999999903 H94.64125 Q94.64125 -0.5887499999999903 94.64125 -0.5887499999999903 Q94.64125 -0.5887499999999903 94.64125 -0.5887499999999903 H25.35875 Z"/></g><g id="Regular-M" transform="matrix(1 0 0 1 1394.06 1126)"><path d="M25.0 9.77000000000001 Q20.875 9.77000000000001 17.9375 6.83250000000001 Q15.0 3.8950000000000102 15.0 -0.22999999999998977 V-70.22999999999999 Q15.0 -74.35499999999999 17.9375 -77.29249999999999 Q20.875 -80.22999999999999 25.0 -80.22999999999999 H95.0 Q99.125 -80.22999999999999 102.0625 -77.29249999999999 Q105.0 -74.35499999999999 105.0 -70.22999999999999 V-0.22999999999998977 Q105.0 3.8950000000000102 102.0625 6.83250000000001 Q99.125 9.77000000000001 95.0 9.77000000000001 H25.0 Z M25.0 -0.22999999999998977 H95.0 Q95.0 -0.22999999999998977 95.0 -0.22999999999998977 Q95.0 -0.22999999999998977 95.0 -0.22999999999998977 V-15.22999999999999 H80.0 Q76.25 -10.47999999999999 71.0625 -7.85499999999999 Q65.875 -5.22999999999999 60.0 -5.22999999999999 Q54.125 -5.22999999999999 48.9375 -7.85499999999999 Q43.75 -10.47999999999999 40.0 -15.22999999999999 H25.0 V-0.22999999999998977 Q25.0 -0.22999999999998977 25.0 -0.22999999999998977 Q25.0 -0.22999999999998977 25.0 -0.22999999999998977 Z M60.0 -15.22999999999999 Q64.75 -15.22999999999999 68.625 -17.97999999999999 Q72.5 -20.72999999999999 74.0 -25.22999999999999 H95.0 V-70.22999999999999 Q95.0 -70.22999999999999 95.0 -70.22999999999999 Q95.0 -70.22999999999999 95.0 -70.22999999999999 H25.0 Q25.0 -70.22999999999999 25.0 -70.22999999999999 Q25.0 -70.22999999999999 25.0 -70.22999999999999 V-25.22999999999999 H46.0 Q47.5 -20.72999999999999 51.375 -17.97999999999999 Q55.25 -15.22999999999999 60.0 -15.22999999999999 Z"/></g><g id="Light-M" transform="matrix(1 0 0 1 1098.18 1126)"><path d="M26.538625 7.269875000000013 Q22.750125 7.269875000000013 20.125125 4.644875000000013 Q17.500125 2.019875000000013 17.500125 -1.768624999999986 V-68.691375 Q17.500125 -72.47987499999999 20.125125 -75.10487499999999 Q22.750125 -77.72987499999999 26.538625 -77.72987499999999 H93.461375 Q97.249875 -77.72987499999999 99.874875 -75.10487499999999 Q102.499875 -72.47987499999999 102.499875 -68.691375 V-1.768624999999986 Q102.499875 2.019875000000013 99.874875 4.644875000000013 Q97.249875 7.269875000000013 93.461375 7.269875000000013 H26.538625 Z M26.538625 -0.22999999999998977 H93.461375 Q94.1345 -0.22999999999998977 94.56725 -0.6627499999999884 Q95.0 -1.095499999999987 95.0 -1.768624999999986 V-16.191624999999988 H78.557625 Q75.288375 -11.441624999999988 70.4375 -8.816624999999988 Q65.5865 -6.191624999999988 60.0 -6.191624999999988 Q54.4135 -6.191624999999988 49.5625 -8.816624999999988 Q44.711625 -11.441624999999988 41.442375 -16.191624999999988 H25.0 V-1.768624999999986 Q25.0 -1.095499999999987 25.43275 -0.6627499999999884 Q25.8655 -0.22999999999998977 26.538625 -0.22999999999998977 Z M60.0 -13.691374999999994 Q64.75 -13.691374999999994 68.625 -16.441374999999994 Q72.5 -19.191374999999994 74.0 -23.691374999999994 H95.0 V-68.691375 Q95.0 -69.36449999999999 94.56725 -69.79724999999999 Q94.1345 -70.22999999999999 93.461375 -70.22999999999999 H26.538625 Q25.8655 -70.22999999999999 25.43275 -69.79724999999999 Q25.0 -69.36449999999999 25.0 -68.691375 V-23.691374999999994 H46.0 Q47.5 -19.191374999999994 51.375 -16.441374999999994 Q55.25 -13.691374999999994 60.0 -13.691374999999994 Z M26.538625 -0.22999999999998977 Q25.8655 -0.22999999999998977 25.43275 -0.22999999999998977 Q25.0 -0.22999999999998977 25.0 -0.22999999999998977 H41.442375 Q44.711625 -0.22999999999998977 49.5625 -0.22999999999998977 Q54.4135 -0.22999999999998977 60.0 -0.22999999999998977 Q65.5865 -0.22999999999998977 70.4375 -0.22999999999998977 Q75.288375 -0.22999999999998977 78.557625 -0.22999999999998977 H95.0 Q95.0 -0.22999999999998977 94.56725 -0.22999999999998977 Q94.1345 -0.22999999999998977 93.461375 -0.22999999999998977 H26.538625 Z"/></g><g id="Thin-M" transform="matrix(1 0 0 1 802.565 1126)"><path d="M28.076875 4.77000000000001 Q24.625 4.77000000000001 22.3125 2.4575000000000102 Q20.0 0.14500000000001023 20.0 -3.306874999999991 V-67.15312499999999 Q20.0 -70.60499999999999 22.3125 -72.91749999999999 Q24.625 -75.22999999999999 28.076875 -75.22999999999999 H91.923125 Q95.375 -75.22999999999999 97.6875 -72.91749999999999 Q100.0 -70.60499999999999 100.0 -67.15312499999999 V-3.306874999999991 Q100.0 0.14500000000001023 97.6875 2.4575000000000102 Q95.375 4.77000000000001 91.923125 4.77000000000001 H28.076875 Z M28.076875 -0.22999999999998977 H91.923125 Q93.26925 -0.22999999999998977 94.134625 -1.09537499999999 Q95.0 -1.9607499999999902 95.0 -3.306874999999991 V-17.15312499999999 H77.115375 Q74.326875 -12.403124999999989 69.8125 -9.778124999999989 Q65.298125 -7.153124999999989 60.0 -7.153124999999989 Q54.701875 -7.153124999999989 50.1875 -9.778124999999989 Q45.673125 -12.403124999999989 42.884625 -17.15312499999999 H25.0 V-3.306874999999991 Q25.0 -1.9607499999999902 25.865375 -1.09537499999999 Q26.73075 -0.22999999999998977 28.076875 -0.22999999999998977 Z M60.0 -12.153124999999989 Q64.75 -12.153124999999989 68.625 -14.903124999999989 Q72.5 -17.65312499999999 74.0 -22.15312499999999 H95.0 V-67.15312499999999 Q95.0 -68.49924999999999 94.134625 -69.36462499999999 Q93.26925 -70.22999999999999 91.923125 -70.22999999999999 H28.076875 Q26.73075 -70.22999999999999 25.865375 -69.36462499999999 Q25.0 -68.49924999999999 25.0 -67.15312499999999 V-22.15312499999999 H46.0 Q47.5 -17.65312499999999 51.375 -14.903124999999989 Q55.25 -12.153124999999989 60.0 -12.153124999999989 Z M28.076875 -0.22999999999998977 Q26.73075 -0.22999999999998977 25.865375 -0.22999999999998977 Q25.0 -0.22999999999998977 25.0 -0.22999999999998977 H42.884625 Q45.673125 -0.22999999999998977 50.1875 -0.22999999999998977 Q54.701875 -0.22999999999998977 60.0 -0.22999999999998977 Q65.298125 -0.22999999999998977 69.8125 -0.22999999999998977 Q74.326875 -0.22999999999998977 77.115375 -0.22999999999998977 H95.0 Q95.0 -0.22999999999998977 94.134625 -0.22999999999998977 Q93.26925 -0.22999999999998977 91.923125 -0.22999999999998977 H28.076875 Z"/></g><g id="Ultralight-M" transform="matrix(1 0 0 1 506.415 1126)"><path d="M29.0 3.2700000000000102 Q25.75 3.2700000000000102 23.625 1.1450000000000102 Q21.5 -0.9799999999999898 21.5 -4.22999999999999 V-66.22999999999999 Q21.5 -69.47999999999999 23.625 -71.60499999999999 Q25.75 -73.72999999999999 29.0 -73.72999999999999 H91.0 Q94.25 -73.72999999999999 96.375 -71.60499999999999 Q98.5 -69.47999999999999 98.5 -66.22999999999999 V-4.22999999999999 Q98.5 -0.9799999999999898 96.375 1.1450000000000102 Q94.25 3.2700000000000102 91.0 3.2700000000000102 H29.0 Z M29.0 -0.22999999999998977 H91.0 Q92.75 -0.22999999999998977 93.875 -1.3549999999999898 Q95.0 -2.4799999999999898 95.0 -4.22999999999999 V-17.72999999999999 H76.25 Q73.75 -12.97999999999999 69.4375 -10.35499999999999 Q65.125 -7.72999999999999 60.0 -7.72999999999999 Q54.875 -7.72999999999999 50.5625 -10.35499999999999 Q46.25 -12.97999999999999 43.75 -17.72999999999999 H25.0 V-4.22999999999999 Q25.0 -2.4799999999999898 26.125 -1.3549999999999898 Q27.25 -0.22999999999998977 29.0 -0.22999999999998977 Z M60.0 -11.22999999999999 Q64.75 -11.22999999999999 68.625 -13.97999999999999 Q72.5 -16.72999999999999 74.0 -21.22999999999999 H95.0 V-66.22999999999999 Q95.0 -67.97999999999999 93.875 -69.10499999999999 Q92.75 -70.22999999999999 91.0 -70.22999999999999 H29.0 Q27.25 -70.22999999999999 26.125 -69.10499999999999 Q25.0 -67.97999999999999 25.0 -66.22999999999999 V-21.22999999999999 H46.0 Q47.5 -16.72999999999999 51.375 -13.97999999999999 Q55.25 -11.22999999999999 60.0 -11.22999999999999 Z"/></g><g id="Bold-S" transform="matrix(1 0 0 1 2294.23 696)"><path d="M22.4865 1.261250000000004 Q17.653875 1.261250000000004 14.251312500000001 -2.141312499999998 Q10.84875 -5.543875 10.84875 -10.376499999999993 V-60.083499999999994 Q10.84875 -64.9851625 14.251312500000001 -68.35320625 Q17.653875 -71.72125 22.4865 -71.72125 H72.1935 Q77.09516250000001 -71.72125 80.46320625 -68.35320625 Q83.83125 -64.9851625 83.83125 -60.083499999999994 V-10.376499999999993 Q83.83125 -5.543875 80.46320625 -2.141312499999998 Q77.09516250000001 1.261250000000004 72.1935 1.261250000000004 H22.4865 Z M22.4865 -10.376499999999993 H72.1935 Q72.1935 -10.376499999999993 72.1935 -10.376499999999993 Q72.1935 -10.376499999999993 72.1935 -10.376499999999993 V-23.98675 H62.331 Q60.062625000000004 -19.745874999999998 56.068312500000005 -17.132312499999998 Q52.074000000000005 -14.518749999999997 47.34 -14.518749999999997 Q42.507375 -14.518749999999997 38.513062500000004 -17.083 Q34.518750000000004 -19.64725 32.349000000000004 -23.98675 H22.4865 V-10.376499999999993 Q22.4865 -10.376499999999993 22.4865 -10.376499999999993 Q22.4865 -10.376499999999993 22.4865 -10.376499999999993 Z M47.34 -21.619749999999996 Q51.285000000000004 -21.619749999999996 54.0465 -24.381249999999994 Q56.808 -27.142749999999992 56.808 -31.087749999999993 H72.1935 V-60.083499999999994 Q72.1935 -60.083499999999994 72.1935 -60.083499999999994 Q72.1935 -60.083499999999994 72.1935 -60.083499999999994 H22.4865 Q22.4865 -60.083499999999994 22.4865 -60.083499999999994 Q22.4865 -60.083499999999994 22.4865 -60.083499999999994 V-31.087749999999993 H37.872 Q37.872 -27.142749999999992 40.633500000000005 -24.381249999999994 Q43.395 -21.619749999999996 47.34 -21.619749999999996 Z M22.4865 -10.376499999999993 Q22.4865 -10.376499999999993 22.4865 -10.376499999999993 Q22.4865 -10.376499999999993 22.4865 -10.376499999999993 H32.842125 Q35.505 -10.376499999999993 39.351375000000004 -10.376499999999993 Q43.19775 -10.376499999999993 47.47482037500001 -10.376499999999993 Q51.75189075000001 -10.376499999999993 55.528537875000005 -10.376499999999993 Q59.305086375 -10.376499999999993 62.035125 -10.376499999999993 H72.1935 Q72.1935 -10.376499999999993 72.1935 -10.376499999999993 Q72.1935 -10.376499999999993 72.1935 -10.376499999999993 H22.4865 Z"/></g><g id="Semibold-S" transform="matrix(1 0 0 1 1998.1 696)"><path d="M21.971973375 -0.19662474999999802 Q17.99689275 -0.19662474999999802 15.15175875 -3.0417587499999854 Q12.306624750000001 -5.886892749999987 12.306624750000001 -9.861973374999991 V-60.59802662499999 Q12.306624750000001 -64.64214475 15.15175875 -67.45276 Q17.99689275 -70.26337525 21.971973375 -70.26337525 H72.708026625 Q76.75214475 -70.26337525 79.56276000000001 -67.45276 Q82.37337525 -64.64214475 82.37337525 -60.59802662499999 V-9.861973374999991 Q82.37337525 -5.886892749999987 79.56276000000001 -3.0417587499999854 Q76.75214475 -0.19662474999999802 72.708026625 -0.19662474999999802 H21.971973375 Z M21.971973375 -9.861973374999991 H72.708026625 Q72.708026625 -9.861973374999991 72.708026625 -9.861973374999991 Q72.708026625 -9.861973374999991 72.708026625 -9.861973374999991 V-23.72943737499999 H62.331 Q60.062625000000004 -19.488562374999987 56.068312500000005 -16.874999874999986 Q52.074000000000005 -14.261437374999986 47.34 -14.261437374999986 Q42.507375 -14.261437374999986 38.513062500000004 -16.825687374999987 Q34.518750000000004 -19.389937374999988 32.349000000000004 -23.72943737499999 H21.971973375 V-9.861973374999991 Q21.971973375 -9.861973374999991 21.971973375 -9.861973374999991 Q21.971973375 -9.861973374999991 21.971973375 -9.861973374999991 Z M47.34 -21.362437374999985 Q51.285000000000004 -21.362437374999985 54.0465 -24.123937374999997 Q56.808 -26.885437374999995 56.808 -30.83043737499999 H72.708026625 V-60.59802662499999 Q72.708026625 -60.59802662499999 72.708026625 -60.59802662499999 Q72.708026625 -60.59802662499999 72.708026625 -60.59802662499999 H21.971973375 Q21.971973375 -60.59802662499999 21.971973375 -60.59802662499999 Q21.971973375 -60.59802662499999 21.971973375 -60.59802662499999 V-30.83043737499999 H37.872 Q37.872 -26.885437374999995 40.633500000000005 -24.123937374999997 Q43.395 -21.362437374999985 47.34 -21.362437374999985 Z"/></g><g id="Medium-S" transform="matrix(1 0 0 1 1701.85 696)"><path d="M21.58605375 -1.2900801249999887 Q18.254205374999998 -1.2900801249999887 15.827142750000002 -3.7171427499999936 Q13.400080125 -6.1442053749999985 13.400080125 -9.476053749999991 V-60.983946249999995 Q13.400080125 -64.384832125 15.827142750000002 -66.777376 Q18.254205374999998 -69.16991987499999 21.58605375 -69.16991987499999 H73.09394625 Q76.494832125 -69.16991987499999 78.887376 -66.777376 Q81.279919875 -64.384832125 81.279919875 -60.983946249999995 V-9.476053749999991 Q81.279919875 -6.1442053749999985 78.887376 -3.7171427499999936 Q76.494832125 -1.2900801249999887 73.09394625 -1.2900801249999887 H21.58605375 Z M21.58605375 -9.476053749999991 H73.09394625 Q73.09394625 -9.476053749999991 73.09394625 -9.476053749999991 Q73.09394625 -9.476053749999991 73.09394625 -9.476053749999991 V-23.536526874999993 H62.331 Q60.062625000000004 -19.29565187499999 56.068312500000005 -16.68208937499999 Q52.074000000000005 -14.06852687499999 47.34 -14.06852687499999 Q42.507375 -14.06852687499999 38.513062500000004 -16.63277687499999 Q34.518750000000004 -19.19702687499999 32.349000000000004 -23.536526874999993 H21.58605375 V-9.476053749999991 Q21.58605375 -9.476053749999991 21.58605375 -9.476053749999991 Q21.58605375 -9.476053749999991 21.58605375 -9.476053749999991 Z M47.34 -21.16952687499999 Q51.285000000000004 -21.16952687499999 54.0465 -23.931026874999986 Q56.808 -26.692526874999984 56.808 -30.637526874999992 H73.09394625 V-60.983946249999995 Q73.09394625 -60.983946249999995 73.09394625 -60.983946249999995 Q73.09394625 -60.983946249999995 73.09394625 -60.983946249999995 H21.58605375 Q21.58605375 -60.983946249999995 21.58605375 -60.983946249999995 Q21.58605375 -60.983946249999995 21.58605375 -60.983946249999995 V-30.637526874999992 H37.872 Q37.872 -26.692526874999984 40.633500000000005 -23.931026874999986 Q43.395 -21.16952687499999 47.34 -21.16952687499999 Z M21.58605375 -9.476053749999991 Q21.58605375 -9.476053749999991 21.58605375 -9.476053749999991 Q21.58605375 -9.476053749999991 21.58605375 -9.476053749999991 H32.842125 Q35.505 -9.476053749999991 39.351375000000004 -9.476053749999991 Q43.19775 -9.476053749999991 47.47482037500001 -9.476053749999991 Q51.75189075000001 -9.476053749999991 55.528537875000005 -9.476053749999991 Q59.305086375 -9.476053749999991 62.035125 -9.476053749999991 H73.09394625 Q73.09394625 -9.476053749999991 73.09394625 -9.476053749999991 Q73.09394625 -9.476053749999991 73.09394625 -9.476053749999991 H21.58605375 Z"/></g><g id="Regular-S" transform="matrix(1 0 0 1 1405.73 696)"><path d="M21.303 -2.0919999999999987 Q18.442875 -2.0919999999999987 16.3224375 -4.212437499999993 Q14.202 -6.332874999999987 14.202 -9.192999999999998 V-61.266999999999996 Q14.202 -64.19616249999999 16.3224375 -66.28208125 Q18.442875 -68.368 21.303 -68.368 H73.37700000000001 Q76.30616250000001 -68.368 78.39208125 -66.28208125 Q80.47800000000001 -64.19616249999999 80.47800000000001 -61.266999999999996 V-9.192999999999998 Q80.47800000000001 -6.332874999999987 78.39208125 -4.212437499999993 Q76.30616250000001 -2.0919999999999987 73.37700000000001 -2.0919999999999987 H21.303 Z M21.303 -9.192999999999998 H73.37700000000001 Q73.37700000000001 -9.192999999999998 73.37700000000001 -9.192999999999998 Q73.37700000000001 -9.192999999999998 73.37700000000001 -9.192999999999998 V-23.394999999999996 H62.331 Q60.062625000000004 -19.154124999999993 56.068312500000005 -16.540562499999993 Q52.074000000000005 -13.926999999999992 47.34 -13.926999999999992 Q42.507375 -13.926999999999992 38.513062500000004 -16.491249999999994 Q34.518750000000004 -19.055499999999995 32.349000000000004 -23.394999999999996 H21.303 V-9.192999999999998 Q21.303 -9.192999999999998 21.303 -9.192999999999998 Q21.303 -9.192999999999998 21.303 -9.192999999999998 Z M47.34 -21.02799999999999 Q51.285000000000004 -21.02799999999999 54.0465 -23.78949999999999 Q56.808 -26.550999999999988 56.808 -30.495999999999995 H73.37700000000001 V-61.266999999999996 Q73.37700000000001 -61.266999999999996 73.37700000000001 -61.266999999999996 Q73.37700000000001 -61.266999999999996 73.37700000000001 -61.266999999999996 H21.303 Q21.303 -61.266999999999996 21.303 -61.266999999999996 Q21.303 -61.266999999999996 21.303 -61.266999999999996 V-30.495999999999995 H37.872 Q37.872 -26.550999999999988 40.633500000000005 -23.78949999999999 Q43.395 -21.02799999999999 47.34 -21.02799999999999 Z M21.303 -9.192999999999998 Q21.303 -9.192999999999998 21.303 -9.192999999999998 Q21.303 -9.192999999999998 21.303 -9.192999999999998 H32.842125 Q35.505 -9.192999999999998 39.351375000000004 -9.192999999999998 Q43.19775 -9.192999999999998 47.47482037500001 -9.192999999999998 Q51.75189075000001 -9.192999999999998 55.528537875000005 -9.192999999999998 Q59.305086375 -9.192999999999998 62.035125 -9.192999999999998 H73.37700000000001 Q73.37700000000001 -9.192999999999998 73.37700000000001 -9.192999999999998 Q73.37700000000001 -9.192999999999998 73.37700000000001 -9.192999999999998 H21.303 Z"/></g><g id="Light-S" transform="matrix(1 0 0 1 1109.75 696)"><path d="M22.516975125000002 -4.064598624999988 Q19.922348625 -4.064598624999988 18.048473625 -5.938473624999986 Q16.174598625 -7.812348624999984 16.174598625 -10.406975124999988 V-60.05302487499999 Q16.174598625 -62.716688874999996 18.048473625 -64.556045125 Q19.922348625 -66.395401375 22.516975125000002 -66.395401375 H72.163024875 Q74.826688875 -66.395401375 76.66604512500001 -64.556045125 Q78.505401375 -62.716688874999996 78.505401375 -60.05302487499999 V-10.406975124999988 Q78.505401375 -7.812348624999984 76.66604512500001 -5.938473624999986 Q74.826688875 -4.064598624999988 72.163024875 -4.064598624999988 H22.516975125000002 Z M22.516975125000002 -9.192999999999998 H72.163024875 Q72.69412050000001 -9.192999999999998 73.03556025 -9.53443974999999 Q73.37700000000001 -9.875879499999996 73.37700000000001 -10.406975124999988 V-24.153722124999987 H61.192966125000005 Q59.303902875000006 -19.912847125 55.575187500000006 -17.299284625 Q51.846373500000006 -14.685722124999998 47.34 -14.685722124999998 Q42.7350015 -14.685722124999998 39.0061875 -17.249972124999985 Q35.277472125 -19.814222124999986 33.487033875 -24.153722124999987 H21.303 V-10.406975124999988 Q21.303 -9.875879499999996 21.64443975 -9.53443974999999 Q21.985879500000003 -9.192999999999998 22.516975125000002 -9.192999999999998 Z M47.34 -19.814024875 Q51.285000000000004 -19.814024875 54.0465 -22.575524875 Q56.808 -25.337024874999997 56.808 -29.282024874999998 H73.37700000000001 V-60.05302487499999 Q73.37700000000001 -60.5841205 73.03556025 -60.92556025 Q72.69412050000001 -61.266999999999996 72.163024875 -61.266999999999996 H22.516975125000002 Q21.985879500000003 -61.266999999999996 21.64443975 -60.92556025 Q21.303 -60.5841205 21.303 -60.05302487499999 V-29.282024874999998 H37.872 Q37.872 -25.337024874999997 40.633500000000005 -22.575524875 Q43.395 -19.814024875 47.34 -19.814024875 Z M22.516975125000002 -9.192999999999998 Q21.985879500000003 -9.192999999999998 21.64443975 -9.192999999999998 Q21.303 -9.192999999999998 21.303 -9.192999999999998 H33.980158875 Q36.263722125 -9.192999999999998 39.844500000000004 -9.192999999999998 Q43.4253765 -9.192999999999998 47.47482037500001 -9.192999999999998 Q51.52426425000001 -9.192999999999998 55.03531425 -9.192999999999998 Q58.54636425 -9.192999999999998 60.897091125 -9.192999999999998 H73.37700000000001 Q73.37700000000001 -9.192999999999998 73.03556025 -9.192999999999998 Q72.69412050000001 -9.192999999999998 72.163024875 -9.192999999999998 H22.516975125000002 Z"/></g><g id="Thin-S" transform="matrix(1 0 0 1 814.015 696)"><path d="M23.730654375 -6.036999999999992 Q21.401625 -6.036999999999992 19.7743125 -7.664312499999994 Q18.147000000000002 -9.291624999999996 18.147000000000002 -11.620654375 V-58.83934562499999 Q18.147000000000002 -61.23741249999999 19.7743125 -62.830206249999996 Q21.401625 -64.423 23.730654375 -64.423 H70.949345625 Q73.3474125 -64.423 74.94020625 -62.830206249999996 Q76.533 -61.23741249999999 76.533 -58.83934562499999 V-11.620654375 Q76.533 -9.291624999999996 74.94020625 -7.664312499999994 Q73.3474125 -6.036999999999992 70.949345625 -6.036999999999992 H23.730654375 Z M23.730654375 -9.192999999999998 H70.949345625 Q72.01143825 -9.192999999999998 72.694219125 -9.87578087499999 Q73.37700000000001 -10.558561749999996 73.37700000000001 -11.620654375 V-24.912345624999986 H60.055030875 Q58.54527937500001 -20.671470624999998 55.0820625 -18.057908124999997 Q51.618845625 -15.444345624999997 47.34 -15.444345624999997 Q42.962529375 -15.444345624999997 39.4993125 -18.008595624999998 Q36.036095625 -20.572845625 34.624969125 -24.912345624999986 H21.303 V-11.620654375 Q21.303 -10.558561749999996 21.985780875 -9.87578087499999 Q22.668561750000002 -9.192999999999998 23.730654375 -9.192999999999998 Z M47.34 -18.60034562499999 Q51.285000000000004 -18.60034562499999 54.0465 -21.361845624999987 Q56.808 -24.123345625 56.808 -28.068345624999992 H73.37700000000001 V-58.83934562499999 Q73.37700000000001 -59.90143825 72.694219125 -60.58421912499999 Q72.01143825 -61.266999999999996 70.949345625 -61.266999999999996 H23.730654375 Q22.668561750000002 -61.266999999999996 21.985780875 -60.58421912499999 Q21.303 -59.90143825 21.303 -58.83934562499999 V-28.068345624999992 H37.872 Q37.872 -24.123345625 40.633500000000005 -21.361845624999987 Q43.395 -18.60034562499999 47.34 -18.60034562499999 Z M23.730654375 -9.192999999999998 Q22.668561750000002 -9.192999999999998 21.985780875 -9.192999999999998 Q21.303 -9.192999999999998 21.303 -9.192999999999998 H35.118094125 Q37.022345625 -9.192999999999998 40.337625 -9.192999999999998 Q43.652904375000006 -9.192999999999998 47.47482037500001 -9.192999999999998 Q51.296736375 -9.192999999999998 54.54228787500001 -9.192999999999998 Q57.78774075 -9.192999999999998 59.759155875000005 -9.192999999999998 H73.37700000000001 Q73.37700000000001 -9.192999999999998 72.694219125 -9.192999999999998 Q72.01143825 -9.192999999999998 70.949345625 -9.192999999999998 H23.730654375 Z"/></g><g id="Ultralight-S" transform="matrix(1 0 0 1 517.792 696)"><path d="M24.459 -7.220499999999987 Q22.289250000000003 -7.220499999999987 20.809875 -8.699874999999992 Q19.3305 -10.179249999999996 19.3305 -12.34899999999999 V-58.111 Q19.3305 -60.34978749999999 20.809875 -61.79464375 Q22.289250000000003 -63.23949999999999 24.459 -63.23949999999999 H70.221 Q72.4597875 -63.23949999999999 73.90464375 -61.79464375 Q75.3495 -60.34978749999999 75.3495 -58.111 V-12.34899999999999 Q75.3495 -10.179249999999996 73.90464375 -8.699874999999992 Q72.4597875 -7.220499999999987 70.221 -7.220499999999987 H24.459 Z M24.459 -9.192999999999998 H70.221 Q71.60175000000001 -9.192999999999998 72.48937500000001 -10.080624999999998 Q73.37700000000001 -10.968249999999998 73.37700000000001 -12.34899999999999 V-25.367499999999993 H59.37225 Q58.090125 -21.12662499999999 54.786187500000004 -18.51306249999999 Q51.48225 -15.899499999999989 47.34 -15.899499999999989 Q43.099125 -15.899499999999989 39.795187500000004 -18.46374999999999 Q36.49125 -21.02799999999999 35.30775 -25.367499999999993 H21.303 V-12.34899999999999 Q21.303 -10.968249999999998 22.190625 -10.080624999999998 Q23.07825 -9.192999999999998 24.459 -9.192999999999998 Z M47.34 -17.872 Q51.285000000000004 -17.872 54.0465 -20.633499999999998 Q56.808 -23.394999999999996 56.808 -27.33999999999999 H73.37700000000001 V-58.111 Q73.37700000000001 -59.491749999999996 72.48937500000001 -60.379374999999996 Q71.60175000000001 -61.266999999999996 70.221 -61.266999999999996 H24.459 Q23.07825 -61.266999999999996 22.190625 -60.379374999999996 Q21.303 -59.491749999999996 21.303 -58.111 V-27.33999999999999 H37.872 Q37.872 -23.394999999999996 40.633500000000005 -20.633499999999998 Q43.395 -17.872 47.34 -17.872 Z M24.459 -9.192999999999998 Q23.07825 -9.192999999999998 22.190625 -9.192999999999998 Q21.303 -9.192999999999998 21.303 -9.192999999999998 H35.800875000000005 Q37.4775 -9.192999999999998 40.633500000000005 -9.192999999999998 Q43.789500000000004 -9.192999999999998 47.47482037500001 -9.192999999999998 Q51.160140750000004 -9.192999999999998 54.246412875000004 -9.192999999999998 Q57.332586375 -9.192999999999998 59.076375000000006 -9.192999999999998 H73.37700000000001 Q73.37700000000001 -9.192999999999998 72.48937500000001 -9.192999999999998 Q71.60175000000001 -9.192999999999998 70.221 -9.192999999999998 H24.459 Z"/></g></g></svg>