<svg xmlns="http://www.w3.org/2000/svg" version="1.1" width="3300" height="2000"><g id="Notes"><style>
    text {
      font-family: monospace;
      text-anchor: middle;
    }
    text.emphasis {
      font-weight:bold;
    }
    text.lanchor {
      text-anchor: start;
    }
  </style><rect height="2200" id="artboard" fill="white" width="3300" x="0" y="0"/><line id="" style="fill:none;stroke:black;stroke-width:0.5;" x1="263" x2="3036" y1="292" y2="292"/><text class="lanchor emphasis" transform="matrix(1 0 0 1 263 322)">Weight/Scale Variations</text><text transform="matrix(1 0 0 1 559.711 322)">Ultralight</text><text transform="matrix(1 0 0 1 856.422 322)">Thin</text><text transform="matrix(1 0 0 1 1153.13 322)">Light</text><text transform="matrix(1 0 0 1 1449.84 322)">Regular</text><text transform="matrix(1 0 0 1 1746.56 322)">Medium</text><text transform="matrix(1 0 0 1 2043.27 322)">Semibold</text><text transform="matrix(1 0 0 1 2339.98 322)">Bold</text><text transform="matrix(1 0 0 1 2636.69 322)">Heavy</text><text transform="matrix(1 0 0 1 2933.4 322)">Black</text><text id="template-version" style="text-anchor: end;" transform="matrix(1 0 0 1 3036 1933)">Template v.1.0</text><text class="lanchor" transform="matrix(1 0 0 1 263 726)">Small</text><text class="lanchor" transform="matrix(1 0 0 1 263 1156)">Medium</text><text class="lanchor" transform="matrix(1 0 0 1 263 1586)">Large</text></g><g id="Guides"><g id="H-reference" style="fill:#27AAE1;stroke:none;" transform="matrix(1 0 0 1 339 696)"><path d="M 54.9316 0 L 57.666 0 L 30.5664 -70.459 L 28.0762 -70.459 L 0.976562 0 L 3.66211 0 L 12.9395 -24.4629 L 45.7031 -24.4629 Z M 29.1992 -67.0898 L 29.4434 -67.0898 L 44.8242 -26.709 L 13.8184 -26.709 Z"/></g><line id="Baseline-S" style="fill:none;stroke:#27AAE1;opacity:1;stroke-width:0.577;" x1="263" x2="3036" y1="696" y2="696"/><line id="Capline-S" style="fill:none;stroke:#27AAE1;opacity:1;stroke-width:0.577;" x1="263" x2="3036" y1="625.541" y2="625.541"/><g id="H-reference" style="fill:#27AAE1;stroke:none;" transform="matrix(1 0 0 1 339 1126)"><path d="M 54.9316 0 L 57.666 0 L 30.5664 -70.459 L 28.0762 -70.459 L 0.976562 0 L 3.66211 0 L 12.9395 -24.4629 L 45.7031 -24.4629 Z M 29.1992 -67.0898 L 29.4434 -67.0898 L 44.8242 -26.709 L 13.8184 -26.709 Z"/></g><line id="Baseline-M" style="fill:none;stroke:#27AAE1;opacity:1;stroke-width:0.577;" x1="263" x2="3036" y1="1126" y2="1126"/><line id="Capline-M" style="fill:none;stroke:#27AAE1;opacity:1;stroke-width:0.577;" x1="263" x2="3036" y1="1055.54" y2="1055.54"/><g id="H-reference" style="fill:#27AAE1;stroke:none;" transform="matrix(1 0 0 1 339 1556)"><path d="M 54.9316 0 L 57.666 0 L 30.5664 -70.459 L 28.0762 -70.459 L 0.976562 0 L 3.66211 0 L 12.9395 -24.4629 L 45.7031 -24.4629 Z M 29.1992 -67.0898 L 29.4434 -67.0898 L 44.8242 -26.709 L 13.8184 -26.709 Z"/></g><line id="Baseline-L" style="fill:none;stroke:#27AAE1;opacity:1;stroke-width:0.577;" x1="263" x2="3036" y1="1556" y2="1556"/><line id="Capline-L" style="fill:none;stroke:#27AAE1;opacity:1;stroke-width:0.577;" x1="263" x2="3036" y1="1485.54" y2="1485.54"/><rect height="119.336" id="left-margin" style="fill:darkred;stroke:none;opacity:0.4;" width="12.4512" x="1394.06" y="1030.79"/><rect height="119.336" id="right-margin" style="fill:darkgreen;stroke:none;opacity:0.4;" width="12.4512" x="1502.5112" y="1030.79"/><rect x="1406.5112" y="1045" width="96" height="96" fill="none" stroke="blue" stroke-dasharray="5"/><rect x="1394.06" y="1030.79" width="120.9024" height="119.336" fill="none" stroke="blue"/></g><g id="Symbols"><g id="Bold-L" transform="matrix(1 0 0 1 2266 1556)"><path d="M24.02625 20.401250000000033 Q17.7294375 20.401250000000033 13.299093749999999 15.970906250000013 Q8.86875 11.540562500000021 8.86875 5.243750000000006 V-75.70374999999999 Q8.86875 -82.06715874999999 13.299093749999999 -86.54474874999998 Q17.7294375 -91.02249999999998 24.02625 -91.02249999999998 H130.77375 Q137.13715875 -91.02249999999998 141.61474875 -86.54474874999998 Q146.0925 -82.06715874999999 146.0925 -75.70374999999999 V5.243750000000006 Q146.0925 11.540562500000021 141.61474875 15.970906250000013 Q137.13715875 20.401250000000033 130.77375 20.401250000000033 H24.02625 Z M77.4 -27.167499999999976  24.02625 -63.126249999999985 V5.243750000000006 Q24.02625 5.243750000000006 24.02625 5.243750000000006 Q24.02625 5.243750000000006 24.02625 5.243750000000006 H130.77375 Q130.77375 5.243750000000006 130.77375 5.243750000000006 Q130.77375 5.243750000000006 130.77375 5.243750000000006 V-63.126249999999985 L77.4 -27.167499999999976 Z M77.4 -40.55124999999998  130.12875 -75.70374999999999 H24.8325 L77.4 -40.55124999999998 Z"/></g><g id="Semibold-L" transform="matrix(1 0 0 1 1970.27 1556)"><path d="M23.39527875 18.648623750000013 Q18.153525000000002 18.648623750000013 14.38753125 14.882468750000015 Q10.62137625 11.116475000000008 10.62137625 5.874721250000022 V-76.33472124999999 Q10.62137625 -81.61404624999999 14.38753125 -85.40696874999998 Q18.153525000000002 -89.19972999999999 23.39527875 -89.19972999999999 H131.40472125 Q136.68404625 -89.19972999999999 140.47696875 -85.40696874999998 Q144.26973 -81.61404624999999 144.26973 -76.33472124999999 V5.874721250000022 Q144.26973 11.116475000000008 140.47696875 14.882468750000015 Q136.68404625 18.648623750000013 131.40472125 18.648623750000013 H23.39527875 Z M77.4 -29.410809999999984  23.39527875 -65.36955999999998 V5.874721250000022 Q23.39527875 5.874721250000022 23.39527875 5.874721250000022 Q23.39527875 5.874721250000022 23.39527875 5.874721250000022 H131.40472125 Q131.40472125 5.874721250000022 131.40472125 5.874721250000022 Q131.40472125 5.874721250000022 131.40472125 5.874721250000022 V-65.36955999999998 L77.4 -29.410809999999984 Z M77.4 -41.182221249999984  130.75972125 -76.33472124999999 H24.201528749999998 L77.4 -41.182221249999984 Z"/></g><g id="Medium-L" transform="matrix(1 0 0 1 1674.31 1556)"><path d="M22.92201 17.33395250000001 Q18.47167125 17.33395250000001 15.203778750000001 14.066221250000012 Q11.9360475 10.798328750000024 11.9360475 6.34799000000001 V-76.80798999999999 Q11.9360475 -81.27413124999998 15.203778750000001 -84.55331124999998 Q18.47167125 -87.83265249999998 22.92201 -87.83265249999998 H131.87798999999998 Q136.34413125 -87.83265249999998 139.62331125 -84.55331124999998 Q142.9026525 -81.27413124999998 142.9026525 -76.80798999999999 V6.34799000000001 Q142.9026525 10.798328750000024 139.62331125 14.066221250000012 Q136.34413125 17.33395250000001 131.87798999999998 17.33395250000001 H22.92201 Z M77.4 -31.09361499999997  22.92201 -67.05236499999998 V6.34799000000001 Q22.92201 6.34799000000001 22.92201 6.34799000000001 Q22.92201 6.34799000000001 22.92201 6.34799000000001 H131.87798999999998 Q131.87798999999998 6.34799000000001 131.87798999999998 6.34799000000001 Q131.87798999999998 6.34799000000001 131.87798999999998 6.34799000000001 V-67.05236499999998 L77.4 -31.09361499999997 Z M77.4 -41.65548999999997  131.23299 -76.80798999999999 H23.72826 L77.4 -41.65548999999997 Z"/></g><g id="Regular-L" transform="matrix(1 0 0 1 1378.56 1556)"><path d="M22.575 16.370000000000033 Q18.705000000000002 16.370000000000033 15.8025 13.46750000000003 Q12.9 10.565000000000026 12.9 6.695000000000022 V-77.15499999999999 Q12.9 -81.02499999999998 15.8025 -83.92749999999998 Q18.705000000000002 -86.82999999999998 22.575 -86.82999999999998 H132.225 Q136.095 -86.82999999999998 138.9975 -83.92749999999998 Q141.9 -81.02499999999998 141.9 -77.15499999999999 V6.695000000000022 Q141.9 10.565000000000026 138.9975 13.46750000000003 Q136.095 16.370000000000033 132.225 16.370000000000033 H22.575 Z M77.4 -32.327499999999986  22.575 -68.28624999999998 V6.695000000000022 Q22.575 6.695000000000022 22.575 6.695000000000022 Q22.575 6.695000000000022 22.575 6.695000000000022 H132.225 Q132.225 6.695000000000022 132.225 6.695000000000022 Q132.225 6.695000000000022 132.225 6.695000000000022 V-68.28624999999998 L77.4 -32.327499999999986 Z M77.4 -42.00249999999998  131.58 -77.15499999999999 H23.38125 L77.4 -42.00249999999998 Z"/></g><g id="Light-L" transform="matrix(1 0 0 1 1082.77 1556)"><path d="M25.428157499999998 13.14483875000002 Q21.63410625 13.14483875000002 18.87963375 10.390366250000028 Q16.12516125 7.635893750000037 16.12516125 3.8418425000000127 V-74.30184249999998 Q16.12516125 -78.09589374999999 18.87963375 -80.85036624999998 Q21.63410625 -83.60483874999998 25.428157499999998 -83.60483874999998 H129.3718425 Q133.16589375 -83.60483874999998 135.92036625 -80.85036624999998 Q138.67483875000002 -78.09589374999999 138.67483875000002 -74.30184249999998 V3.8418425000000127 Q138.67483875000002 7.635893750000037 135.92036625 10.390366250000028 Q133.16589375 13.14483875000002 129.3718425 13.14483875000002 H25.428157499999998 Z M77.4 -34.25024499999998  23.44333125 -69.96083124999998 V3.8418425000000127 Q23.44333125 4.710173750000024 24.001578750000004 5.268421250000017 Q24.55982625 5.82666875000001 25.428157499999998 5.82666875000001 H129.3718425 Q130.24017375 5.82666875000001 130.79842125000002 5.268421250000017 Q131.35666875 4.710173750000024 131.35666875 3.8418425000000127 V-69.96083124999998 L77.4 -34.25024499999998 Z M77.4 -41.94041874999998  129.90541875 -76.28666874999999 H25.05583125 L77.4 -41.94041874999998 Z M23.44333125 -69.96083124999998 V-76.28666874999999 V-69.96083124999998 V3.8418425000000127 Q23.44333125 4.710173750000024 24.001578750000004 5.268421250000017 Q24.55982625 5.82666875000001 25.428157499999998 5.82666875000001 H23.44333125 Q23.44333125 5.82666875000001 23.44333125 5.268421250000017 Q23.44333125 4.710173750000024 23.44333125 3.8418425000000127 V-69.96083124999998 Z"/></g><g id="Thin-L" transform="matrix(1 0 0 1 787.282 1556)"><path d="M28.280669999999997 9.920000000000016 Q24.56272875 9.920000000000016 21.95628375 7.313716250000027 Q19.35 4.707271250000019 19.35 0.9893300000000238 V-71.44932999999997 Q19.35 -75.16727124999998 21.95628375 -77.77371624999998 Q24.56272875 -80.37999999999998 28.280669999999997 -80.37999999999998 H126.51933 Q130.23727125 -80.37999999999998 132.84371625 -77.77371624999998 Q135.45000000000002 -75.16727124999998 135.45000000000002 -71.44932999999997 V0.9893300000000238 Q135.45000000000002 4.707271250000019 132.84371625 7.313716250000027 Q130.23727125 9.920000000000016 126.51933 9.920000000000016 H28.280669999999997 Z M77.4 -36.17266749999999  24.311501250000003 -71.63525124999998 V0.9893300000000238 Q24.311501250000003 2.7258312500000272 25.427835 3.8421650000000227 Q26.54416875 4.958498750000018 28.280669999999997 4.958498750000018 H126.51933 Q128.25583125 4.958498750000018 129.372165 3.8421650000000227 Q130.48849875 2.7258312500000272 130.48849875 0.9893300000000238 V-71.63525124999998 L77.4 -36.17266749999999 Z M77.4 -41.87849874999998  128.23099875 -75.41849874999998 H26.730251250000002 L77.4 -41.87849874999998 Z M24.311501250000003 -71.63525124999998 V-75.41849874999998 V-71.63525124999998 V0.9893300000000238 Q24.311501250000003 2.7258312500000272 25.427835 3.8421650000000227 Q26.54416875 4.958498750000018 28.280669999999997 4.958498750000018 H24.311501250000003 Q24.311501250000003 4.958498750000018 24.311501250000003 3.8421650000000227 Q24.311501250000003 2.7258312500000272 24.311501250000003 0.9893300000000238 V-71.63525124999998 Z"/></g><g id="Ultralight-L" transform="matrix(1 0 0 1 491.205 1556)"><path d="M29.9925 7.985000000000014 Q26.32003125 7.985000000000014 23.80259625 5.467565000000036 Q21.285 2.9499687500000107 21.285 -0.7224999999999824 V-69.73749999999998 Q21.285 -73.40996874999999 23.80259625 -75.92756499999999 Q26.32003125 -78.445 29.9925 -78.445 H124.8075 Q128.47996875 -78.445 130.997565 -75.92756499999999 Q133.51500000000001 -73.40996874999999 133.51500000000001 -69.73749999999998 V-0.7224999999999824 Q133.51500000000001 2.9499687500000107 130.997565 5.467565000000036 Q128.47996875 7.985000000000014 124.8075 7.985000000000014 H29.9925 Z M77.4 -37.32624999999999  24.8325 -72.63999999999999 V-0.7224999999999824 Q24.8325 1.535000000000025 26.28375 2.9862500000000125 Q27.735 4.437500000000028 29.9925 4.437500000000028 H124.8075 Q127.065 4.437500000000028 128.51625 2.9862500000000125 Q129.9675 1.535000000000025 129.9675 -0.7224999999999824 V-72.63999999999999 L77.4 -37.32624999999999 Z M77.4 -41.84124999999999  127.22625000000001 -74.89749999999998 H27.735 L77.4 -41.84124999999999 Z M24.8325 -72.63999999999999 V-74.89749999999998 V-72.63999999999999 V-0.7224999999999824 Q24.8325 1.535000000000025 26.28375 2.9862500000000125 Q27.735 4.437500000000028 29.9925 4.437500000000028 H24.8325 Q24.8325 4.437500000000028 24.8325 2.9862500000000125 Q24.8325 1.535000000000025 24.8325 -0.7224999999999824 V-72.63999999999999 Z"/></g><g id="Bold-M" transform="matrix(1 0 0 1 2281.8 1126)"><path d="M21.5 9.02000000000001 Q14.875 9.02000000000001 10.3125 4.45750000000001 Q5.75 -0.10499999999998977 5.75 -6.72999999999999 V-63.72999999999999 Q5.75 -70.35499999999999 10.3125 -74.91749999999999 Q14.875 -79.47999999999999 21.5 -79.47999999999999 H98.5 Q105.125 -79.47999999999999 109.6875 -74.91749999999999 Q114.25 -70.35499999999999 114.25 -63.72999999999999 V-6.72999999999999 Q114.25 -0.10499999999998977 109.6875 4.45750000000001 Q105.125 9.02000000000001 98.5 9.02000000000001 H21.5 Z M60.0 -24.85499999999999  21.5 -49.85499999999999 V-6.72999999999999 Q21.5 -6.72999999999999 21.5 -6.72999999999999 Q21.5 -6.72999999999999 21.5 -6.72999999999999 H98.5 Q98.5 -6.72999999999999 98.5 -6.72999999999999 Q98.5 -6.72999999999999 98.5 -6.72999999999999 V-49.85499999999999 L60.0 -24.85499999999999 Z M60.0 -38.72999999999999  98.5 -63.72999999999999 H21.5 L60.0 -38.72999999999999 Z"/></g><g id="Semibold-M" transform="matrix(1 0 0 1 1985.97 1126)"><path d="M20.847875 7.172250000000005 Q15.30975 7.172250000000005 11.45375 3.316250000000011 Q7.59775 -0.5397499999999837 7.59775 -6.077874999999992 V-64.38212499999999 Q7.59775 -69.92024999999998 11.45375 -73.77624999999999 Q15.30975 -77.63224999999998 20.847875 -77.63224999999998 H99.152125 Q104.69025 -77.63224999999998 108.54625 -73.77624999999999 Q112.40225 -69.92024999999998 112.40225 -64.38212499999999 V-6.077874999999992 Q112.40225 -0.5397499999999837 108.54625 3.316250000000011 Q104.69025 7.172250000000005 99.152125 7.172250000000005 H20.847875 Z M60.0 -27.191749999999985  20.847875 -52.19174999999999 V-6.077874999999992 Q20.847875 -6.077874999999992 20.847875 -6.077874999999992 Q20.847875 -6.077874999999992 20.847875 -6.077874999999992 H99.152125 Q99.152125 -6.077874999999992 99.152125 -6.077874999999992 Q99.152125 -6.077874999999992 99.152125 -6.077874999999992 V-52.19174999999999 L60.0 -27.191749999999985 Z M60.0 -39.38212499999999  99.152125 -64.38212499999999 H20.847875 L60.0 -39.38212499999999 Z"/></g><g id="Medium-M" transform="matrix(1 0 0 1 1689.91 1126)"><path d="M20.35875 5.786375000000007 Q15.635875 5.786375000000007 12.30975 2.4602500000000163 Q8.983625 -0.8658749999999884 8.983625 -5.58874999999999 V-64.87124999999999 Q8.983625 -69.59412499999999 12.30975 -72.92024999999998 Q15.635875 -76.24637499999999 20.35875 -76.24637499999999 H99.64125 Q104.364125 -76.24637499999999 107.69025 -72.92024999999998 Q111.016375 -69.59412499999999 111.016375 -64.87124999999999 V-5.58874999999999 Q111.016375 -0.8658749999999884 107.69025 2.4602500000000163 Q104.364125 5.786375000000007 99.64125 5.786375000000007 H20.35875 Z M60.0 -28.944624999999988  20.35875 -53.94462499999999 V-5.58874999999999 Q20.35875 -5.58874999999999 20.35875 -5.58874999999999 Q20.35875 -5.58874999999999 20.35875 -5.58874999999999 H99.64125 Q99.64125 -5.58874999999999 99.64125 -5.58874999999999 Q99.64125 -5.58874999999999 99.64125 -5.58874999999999 V-53.94462499999999 L60.0 -28.944624999999988 Z M60.0 -39.87124999999999  99.64125 -64.87124999999999 H20.35875 L60.0 -39.87124999999999 Z"/></g><g id="Regular-M" transform="matrix(1 0 0 1 1394.06 1126)"><path d="M20.0 4.77000000000001 Q15.875 4.77000000000001 12.9375 1.8325000000000102 Q10.0 -1.1049999999999898 10.0 -5.22999999999999 V-65.22999999999999 Q10.0 -69.35499999999999 12.9375 -72.29249999999999 Q15.875 -75.22999999999999 20.0 -75.22999999999999 H100.0 Q104.125 -75.22999999999999 107.0625 -72.29249999999999 Q110.0 -69.35499999999999 110.0 -65.22999999999999 V-5.22999999999999 Q110.0 -1.1049999999999898 107.0625 1.8325000000000102 Q104.125 4.77000000000001 100.0 4.77000000000001 H20.0 Z M60.0 -30.22999999999999  20.0 -55.22999999999999 V-5.22999999999999 Q20.0 -5.22999999999999 20.0 -5.22999999999999 Q20.0 -5.22999999999999 20.0 -5.22999999999999 H100.0 Q100.0 -5.22999999999999 100.0 -5.22999999999999 Q100.0 -5.22999999999999 100.0 -5.22999999999999 V-55.22999999999999 L60.0 -30.22999999999999 Z M60.0 -40.22999999999999  100.0 -65.22999999999999 H20.0 L60.0 -40.22999999999999 Z"/></g><g id="Light-M" transform="matrix(1 0 0 1 1098.18 1126)"><path d="M21.538625 2.269875000000013 Q17.750125 2.269875000000013 15.125125 -0.3551249999999868 Q12.500125 -2.980124999999987 12.500125 -6.768624999999986 V-63.69137499999999 Q12.500125 -67.47987499999999 15.125125 -70.10487499999999 Q17.750125 -72.72987499999999 21.538625 -72.72987499999999 H98.461375 Q102.249875 -72.72987499999999 104.874875 -70.10487499999999 Q107.499875 -67.47987499999999 107.499875 -63.69137499999999 V-6.768624999999986 Q107.499875 -2.980124999999987 104.874875 -0.3551249999999868 Q102.249875 2.269875000000013 98.461375 2.269875000000013 H21.538625 Z M60.0 -32.441749999999985  20.0 -58.01862499999999 V-6.768624999999986 Q20.0 -6.095499999999987 20.43275 -5.662749999999988 Q20.8655 -5.22999999999999 21.538625 -5.22999999999999 H98.461375 Q99.1345 -5.22999999999999 99.56725 -5.662749999999988 Q100.0 -6.095499999999987 100.0 -6.768624999999986 V-58.01862499999999 L60.0 -32.441749999999985 Z M60.0 -40.22999999999999  99.23075 -65.22999999999999 H20.76925 L60.0 -40.22999999999999 Z M20.0 -58.01862499999999 V-65.22999999999999 V-58.01862499999999 V-6.768624999999986 Q20.0 -6.095499999999987 20.43275 -5.662749999999988 Q20.8655 -5.22999999999999 21.538625 -5.22999999999999 H20.0 Q20.0 -5.22999999999999 20.0 -5.662749999999988 Q20.0 -6.095499999999987 20.0 -6.768624999999986 V-58.01862499999999 Z"/></g><g id="Thin-M" transform="matrix(1 0 0 1 802.565 1126)"><path d="M23.076875 -0.22999999999998977 Q19.625 -0.22999999999998977 17.3125 -2.5424999999999898 Q15.0 -4.85499999999999 15.0 -8.306874999999991 V-62.15312499999999 Q15.0 -65.60499999999999 17.3125 -67.91749999999999 Q19.625 -70.22999999999999 23.076875 -70.22999999999999 H96.923125 Q100.375 -70.22999999999999 102.6875 -67.91749999999999 Q105.0 -65.60499999999999 105.0 -62.15312499999999 V-8.306874999999991 Q105.0 -4.85499999999999 102.6875 -2.5424999999999898 Q100.375 -0.22999999999998977 96.923125 -0.22999999999998977 H23.076875 Z M60.0 -34.65299999999999  20.0 -60.80687499999999 V-8.306874999999991 Q20.0 -6.96074999999999 20.865375 -6.09537499999999 Q21.73075 -5.22999999999999 23.076875 -5.22999999999999 H96.923125 Q98.26925 -5.22999999999999 99.134625 -6.09537499999999 Q100.0 -6.96074999999999 100.0 -8.306874999999991 V-60.80687499999999 L60.0 -34.65299999999999 Z M60.0 -40.22999999999999  98.4615 -65.22999999999999 H21.5385 L60.0 -40.22999999999999 Z M20.0 -60.80687499999999 V-65.22999999999999 V-60.80687499999999 V-8.306874999999991 Q20.0 -6.96074999999999 20.865375 -6.09537499999999 Q21.73075 -5.22999999999999 23.076875 -5.22999999999999 H20.0 Q20.0 -5.22999999999999 20.0 -6.09537499999999 Q20.0 -6.96074999999999 20.0 -8.306874999999991 V-60.80687499999999 Z"/></g><g id="Ultralight-M" transform="matrix(1 0 0 1 506.415 1126)"><path d="M24.0 -1.7299999999999898 Q20.75 -1.7299999999999898 18.625 -3.8549999999999898 Q16.5 -5.97999999999999 16.5 -9.22999999999999 V-61.22999999999999 Q16.5 -64.47999999999999 18.625 -66.60499999999999 Q20.75 -68.72999999999999 24.0 -68.72999999999999 H96.0 Q99.25 -68.72999999999999 101.375 -66.60499999999999 Q103.5 -64.47999999999999 103.5 -61.22999999999999 V-9.22999999999999 Q103.5 -5.97999999999999 101.375 -3.8549999999999898 Q99.25 -1.7299999999999898 96.0 -1.7299999999999898 H24.0 Z M60.0 -35.97999999999999  20.0 -62.47999999999999 V-9.22999999999999 Q20.0 -7.47999999999999 21.125 -6.35499999999999 Q22.25 -5.22999999999999 24.0 -5.22999999999999 H96.0 Q97.75 -5.22999999999999 98.875 -6.35499999999999 Q100.0 -7.47999999999999 100.0 -9.22999999999999 V-62.47999999999999 L60.0 -35.97999999999999 Z M60.0 -40.22999999999999  98.0 -65.22999999999999 H22.0 L60.0 -40.22999999999999 Z M20.0 -62.47999999999999 V-65.22999999999999 V-62.47999999999999 V-9.22999999999999 Q20.0 -7.47999999999999 21.125 -6.35499999999999 Q22.25 -5.22999999999999 24.0 -5.22999999999999 H20.0 Q20.0 -5.22999999999999 20.0 -6.35499999999999 Q20.0 -7.47999999999999 20.0 -9.22999999999999 V-62.47999999999999 Z"/></g><g id="Bold-S" transform="matrix(1 0 0 1 2294.23 696)"><path d="M17.7525 -3.4727499999999907 Q12.8508375 -3.4727499999999907 9.48279375 -6.841977249999999 Q6.11475 -10.211204499999994 6.11475 -15.11444499999999 V-55.377410874999995 Q6.11475 -60.28075 9.48279375 -63.634 Q12.8508375 -66.98724999999999 17.7525 -66.98724999999999 H76.92750000000001 Q81.82916250000001 -66.98724999999999 85.19720625000001 -63.618022749999994 Q88.56525 -60.24879549999999 88.56525 -55.34555499999999 V-15.082589124999998 Q88.56525 -10.179249999999996 85.19720625000001 -6.825999999999993 Q81.82916250000001 -3.4727499999999907 76.92750000000001 -3.4727499999999907 H17.7525 Z M47.34 -26.255124999999992  17.7525 -43.90899999999999 V-15.110499999999988 Q17.7525 -15.110499999999988 17.7525 -15.110499999999988 Q17.7525 -15.110499999999988 17.7525 -15.110499999999988 H76.92750000000001 Q76.92750000000001 -15.110499999999988 76.92750000000001 -15.110499999999988 Q76.92750000000001 -15.110499999999988 76.92750000000001 -15.110499999999988 V-43.90899999999999 L47.34 -26.255124999999992 Z M47.34 -37.69562499999999  76.92750000000001 -55.34949999999999 H17.7525 L47.34 -37.69562499999999 Z"/></g><g id="Semibold-S" transform="matrix(1 0 0 1 1998.1 696)"><path d="M17.237973375 -4.930624749999993 Q13.19385525 -4.930624749999993 10.38324 -7.742423500000001 Q7.57262475 -10.554222249999995 7.57262475 -14.599918374999987 V-55.8919375 Q7.57262475 -59.937732249999996 10.38324 -62.73355375 Q13.19385525 -65.52937525 17.237973375 -65.52937525 H77.442026625 Q81.48614475000001 -65.52937525 84.29676 -62.71757649999999 Q87.10737525 -59.90577774999999 87.10737525 -55.860081625 V-14.568062499999996 Q87.10737525 -10.522267749999983 84.29676 -7.726446249999995 Q81.48614475000001 -4.930624749999993 77.442026625 -4.930624749999993 H17.237973375 Z M47.34 -28.098820749999987  17.237973375 -45.752695749999994 V-14.595973375 Q17.237973375 -14.595973375 17.237973375 -14.595973375 Q17.237973375 -14.595973375 17.237973375 -14.595973375 H77.442026625 Q77.442026625 -14.595973375 77.442026625 -14.595973375 Q77.442026625 -14.595973375 77.442026625 -14.595973375 V-45.752695749999994 L47.34 -28.098820749999987 Z M47.34 -38.210151624999995  77.442026625 -55.864026624999994 H17.237973375 L47.34 -38.210151624999995 Z"/></g><g id="Medium-S" transform="matrix(1 0 0 1 1701.85 696)"><path d="M16.85205375 -6.024080124999998 Q13.451167875000001 -6.024080124999998 11.058624 -8.417807499999995 Q8.666080125 -10.811534874999992 8.666080125 -14.213998749999988 V-56.27795575 Q8.666080125 -59.680419625 11.058624 -62.05816974999999 Q13.451167875000001 -64.435919875 16.85205375 -64.435919875 H77.82794625 Q81.22883212500001 -64.435919875 83.621376 -62.0421925 Q86.013919875 -59.648465124999994 86.013919875 -56.24600124999999 V-14.18204424999999 Q86.013919875 -10.779580374999995 83.621376 -8.401830249999989 Q81.22883212500001 -6.024080124999998 77.82794625 -6.024080124999998 H16.85205375 Z M47.34 -29.481839124999993  16.85205375 -47.13571412499999 V-14.21005375 Q16.85205375 -14.21005375 16.85205375 -14.21005375 Q16.85205375 -14.21005375 16.85205375 -14.21005375 H77.82794625 Q77.82794625 -14.21005375 77.82794625 -14.21005375 Q77.82794625 -14.21005375 77.82794625 -14.21005375 V-47.13571412499999 L47.34 -29.481839124999993 Z M47.34 -38.596071249999994  77.82794625 -56.249946249999994 H16.85205375 L47.34 -38.596071249999994 Z"/></g><g id="Regular-S" transform="matrix(1 0 0 1 1405.73 696)"><path d="M16.569 -6.825999999999993 Q13.639837500000002 -6.825999999999993 11.553918750000001 -8.913102249999994 Q9.468 -11.000204499999995 9.468 -13.930944999999994 V-56.560910875 Q9.468 -59.491749999999996 11.553918750000001 -61.56287499999999 Q13.639837500000002 -63.634 16.569 -63.634 H78.111 Q81.04016250000001 -63.634 83.12608125000001 -61.54689775 Q85.212 -59.45979549999999 85.212 -56.52905499999999 V-13.899089124999989 Q85.212 -10.968249999999998 83.12608125000001 -8.897124999999988 Q81.04016250000001 -6.825999999999993 78.111 -6.825999999999993 H16.569 Z M47.34 -30.495999999999995  16.569 -48.149874999999994 V-13.926999999999992 Q16.569 -13.926999999999992 16.569 -13.926999999999992 Q16.569 -13.926999999999992 16.569 -13.926999999999992 H78.111 Q78.111 -13.926999999999992 78.111 -13.926999999999992 Q78.111 -13.926999999999992 78.111 -13.926999999999992 V-48.149874999999994 L47.34 -30.495999999999995 Z M47.34 -38.879124999999995  78.111 -56.532999999999994 H16.569 L47.34 -38.879124999999995 Z"/></g><g id="Light-S" transform="matrix(1 0 0 1 1109.75 696)"><path d="M17.782975125 -8.798598624999997 Q15.119311125 -8.798598624999997 13.279954875000001 -10.639138374999987 Q11.440598625000002 -12.479678124999992 11.440598625000002 -15.144920124999999 V-55.347034375 Q11.440598625000002 -58.012276375 13.279954875000001 -59.836838875 Q15.119311125 -61.661401375 17.782975125 -61.661401375 H76.897024875 Q79.560688875 -61.661401375 81.400045125 -59.82086162499999 Q83.239401375 -57.980321874999994 83.239401375 -55.315079874999995 V-15.112965624999987 Q83.239401375 -12.447723624999995 81.400045125 -10.623161124999996 Q79.560688875 -8.798598624999997 76.897024875 -8.798598624999997 H17.782975125 Z M47.34 -32.24107074999999  16.569 -50.350100125 V-15.140975124999997 Q16.569 -14.609879499999991 16.91043975 -14.268439749999999 Q17.2518795 -13.926999999999992 17.782975125 -13.926999999999992 H76.897024875 Q77.4281205 -13.926999999999992 77.76956025 -14.268439749999999 Q78.111 -14.609879499999991 78.111 -15.140975124999997 V-50.350100125 L47.34 -32.24107074999999 Z M47.34 -38.879124999999995  77.50406175 -56.532999999999994 H17.17593825 L47.34 -38.879124999999995 Z M16.569 -50.350100125 V-56.532999999999994 V-50.350100125 V-15.140975124999997 Q16.569 -14.609879499999991 16.91043975 -14.268439749999999 Q17.2518795 -13.926999999999992 17.782975125 -13.926999999999992 H16.569 Q16.569 -13.926999999999992 16.569 -14.268439749999999 Q16.569 -14.609879499999991 16.569 -15.140975124999997 V-50.350100125 Z"/></g><g id="Thin-S" transform="matrix(1 0 0 1 814.015 696)"><path d="M18.996654375000002 -10.770999999999987 Q16.5985875 -10.770999999999987 15.00579375 -12.364977249999995 Q13.413 -13.95895449999999 13.413 -16.35869799999999 V-54.133256499999995 Q13.413 -56.532999999999994 15.00579375 -58.111 Q16.5985875 -59.68899999999999 18.996654375000002 -59.68899999999999 H75.683345625 Q78.08141250000001 -59.68899999999999 79.67420625000001 -58.09502275 Q81.26700000000001 -56.5010455 81.26700000000001 -54.101302 V-16.326743499999992 Q81.26700000000001 -13.926999999999992 79.67420625000001 -12.34899999999999 Q78.08141250000001 -10.770999999999987 75.683345625 -10.770999999999987 H18.996654375000002 Z M47.34 -33.985746999999996  16.569 -52.550029374999994 V-16.354654374999996 Q16.569 -15.29256174999999 17.251780875 -14.609780874999998 Q17.93456175 -13.926999999999992 18.996654375000002 -13.926999999999992 H75.683345625 Q76.74543825 -13.926999999999992 77.428219125 -14.609780874999998 Q78.111 -15.29256174999999 78.111 -16.354654374999996 V-52.550029374999994 L47.34 -33.985746999999996 Z M47.34 -38.879124999999995  76.8971235 -56.532999999999994 H17.7828765 L47.34 -38.879124999999995 Z M16.569 -52.550029374999994 V-56.532999999999994 V-52.550029374999994 V-16.354654374999996 Q16.569 -15.29256174999999 17.251780875 -14.609780874999998 Q17.93456175 -13.926999999999992 18.996654375000002 -13.926999999999992 H16.569 Q16.569 -13.926999999999992 16.569 -14.609780874999998 Q16.569 -15.29256174999999 16.569 -16.354654374999996 V-52.550029374999994 Z"/></g><g id="Ultralight-S" transform="matrix(1 0 0 1 517.792 696)"><path d="M19.725 -11.954499999999996 Q17.4862125 -11.954499999999996 16.04135625 -13.400539749999993 Q14.5965 -14.84657949999999 14.5965 -17.086944999999986 V-53.404910875 Q14.5965 -55.645374999999994 16.04135625 -57.07543749999999 Q17.4862125 -58.5055 19.725 -58.5055 H74.955 Q77.19378750000001 -58.5055 78.63864375 -57.05946025 Q80.0835 -55.6134205 80.0835 -53.373054999999994 V-17.055089124999995 Q80.0835 -14.814624999999992 78.63864375 -13.384562499999987 Q77.19378750000001 -11.954499999999996 74.955 -11.954499999999996 H19.725 Z M47.34 -35.03274999999999  16.569 -53.870124999999994 V-17.083 Q16.569 -15.702249999999992 17.456625000000003 -14.814624999999992 Q18.344250000000002 -13.926999999999992 19.725 -13.926999999999992 H74.955 Q76.33575 -13.926999999999992 77.223375 -14.814624999999992 Q78.111 -15.702249999999992 78.111 -17.083 V-53.870124999999994 L47.34 -35.03274999999999 Z M47.34 -38.879124999999995  76.533 -56.532999999999994 H18.147000000000002 L47.34 -38.879124999999995 Z M16.569 -53.870124999999994 V-56.532999999999994 V-53.870124999999994 V-17.083 Q16.569 -15.702249999999992 17.456625000000003 -14.814624999999992 Q18.344250000000002 -13.926999999999992 19.725 -13.926999999999992 H16.569 Q16.569 -13.926999999999992 16.569 -14.814624999999992 Q16.569 -15.702249999999992 16.569 -17.083 V-53.870124999999994 Z"/></g></g></svg>