<svg xmlns="http://www.w3.org/2000/svg" version="1.1" width="3300" height="2000"><g id="Notes"><style>
    text {
      font-family: monospace;
      text-anchor: middle;
    }
    text.emphasis {
      font-weight:bold;
    }
    text.lanchor {
      text-anchor: start;
    }
  </style><rect height="2200" id="artboard" fill="white" width="3300" x="0" y="0"/><line id="" style="fill:none;stroke:black;stroke-width:0.5;" x1="263" x2="3036" y1="292" y2="292"/><text class="lanchor emphasis" transform="matrix(1 0 0 1 263 322)">Weight/Scale Variations</text><text transform="matrix(1 0 0 1 559.711 322)">Ultralight</text><text transform="matrix(1 0 0 1 856.422 322)">Thin</text><text transform="matrix(1 0 0 1 1153.13 322)">Light</text><text transform="matrix(1 0 0 1 1449.84 322)">Regular</text><text transform="matrix(1 0 0 1 1746.56 322)">Medium</text><text transform="matrix(1 0 0 1 2043.27 322)">Semibold</text><text transform="matrix(1 0 0 1 2339.98 322)">Bold</text><text transform="matrix(1 0 0 1 2636.69 322)">Heavy</text><text transform="matrix(1 0 0 1 2933.4 322)">Black</text><text id="template-version" style="text-anchor: end;" transform="matrix(1 0 0 1 3036 1933)">Template v.1.0</text><text class="lanchor" transform="matrix(1 0 0 1 263 726)">Small</text><text class="lanchor" transform="matrix(1 0 0 1 263 1156)">Medium</text><text class="lanchor" transform="matrix(1 0 0 1 263 1586)">Large</text></g><g id="Guides"><g id="H-reference" style="fill:#27AAE1;stroke:none;" transform="matrix(1 0 0 1 339 696)"><path d="M 54.9316 0 L 57.666 0 L 30.5664 -70.459 L 28.0762 -70.459 L 0.976562 0 L 3.66211 0 L 12.9395 -24.4629 L 45.7031 -24.4629 Z M 29.1992 -67.0898 L 29.4434 -67.0898 L 44.8242 -26.709 L 13.8184 -26.709 Z"/></g><line id="Baseline-S" style="fill:none;stroke:#27AAE1;opacity:1;stroke-width:0.577;" x1="263" x2="3036" y1="696" y2="696"/><line id="Capline-S" style="fill:none;stroke:#27AAE1;opacity:1;stroke-width:0.577;" x1="263" x2="3036" y1="625.541" y2="625.541"/><g id="H-reference" style="fill:#27AAE1;stroke:none;" transform="matrix(1 0 0 1 339 1126)"><path d="M 54.9316 0 L 57.666 0 L 30.5664 -70.459 L 28.0762 -70.459 L 0.976562 0 L 3.66211 0 L 12.9395 -24.4629 L 45.7031 -24.4629 Z M 29.1992 -67.0898 L 29.4434 -67.0898 L 44.8242 -26.709 L 13.8184 -26.709 Z"/></g><line id="Baseline-M" style="fill:none;stroke:#27AAE1;opacity:1;stroke-width:0.577;" x1="263" x2="3036" y1="1126" y2="1126"/><line id="Capline-M" style="fill:none;stroke:#27AAE1;opacity:1;stroke-width:0.577;" x1="263" x2="3036" y1="1055.54" y2="1055.54"/><g id="H-reference" style="fill:#27AAE1;stroke:none;" transform="matrix(1 0 0 1 339 1556)"><path d="M 54.9316 0 L 57.666 0 L 30.5664 -70.459 L 28.0762 -70.459 L 0.976562 0 L 3.66211 0 L 12.9395 -24.4629 L 45.7031 -24.4629 Z M 29.1992 -67.0898 L 29.4434 -67.0898 L 44.8242 -26.709 L 13.8184 -26.709 Z"/></g><line id="Baseline-L" style="fill:none;stroke:#27AAE1;opacity:1;stroke-width:0.577;" x1="263" x2="3036" y1="1556" y2="1556"/><line id="Capline-L" style="fill:none;stroke:#27AAE1;opacity:1;stroke-width:0.577;" x1="263" x2="3036" y1="1485.54" y2="1485.54"/><rect height="119.336" id="left-margin" style="fill:darkred;stroke:none;opacity:0.4;" width="12.4512" x="1394.06" y="1030.79"/><rect height="119.336" id="right-margin" style="fill:darkgreen;stroke:none;opacity:0.4;" width="12.4512" x="1502.5112" y="1030.79"/><rect x="1406.5112" y="1045" width="96" height="96" fill="none" stroke="blue" stroke-dasharray="5"/><rect x="1394.06" y="1030.79" width="120.9024" height="119.336" fill="none" stroke="blue"/></g><g id="Symbols"><g id="Bold-L" transform="matrix(1 0 0 1 2266 1556)"><path d="M27.735 36.04250000000002 Q21.371752500000003 36.04250000000002 16.894001250000002 31.564748750000007 Q12.41625 27.087158750000015 12.41625 20.723750000000024 V-75.05874999999997 H27.735 V20.723750000000024 Q27.735 20.723750000000024 27.735 20.723750000000024 Q27.735 20.723750000000024 27.735 20.723750000000024 H102.71625 V36.04250000000002 H27.735 Z M52.5675 11.048750000000013 Q46.2706875 11.048750000000013 41.84034375 6.618406250000021 Q37.410000000000004 2.188062500000001 37.410000000000004 -4.108749999999986 V-91.50625 Q37.410000000000004 -97.86965874999999 41.84034375 -102.34724874999998 Q46.2706875 -106.82499999999999 52.5675 -106.82499999999999 H120.61500000000001 Q126.97840875 -106.82499999999999 131.45599875 -102.34724874999998 Q135.93375 -97.86965874999999 135.93375 -91.50625 V-4.108749999999986 Q135.93375 2.188062500000001 131.45599875 6.618406250000021 Q126.97840875 11.048750000000013 120.61500000000001 11.048750000000013 H52.5675 Z M52.5675 -4.108749999999986 H120.61500000000001 Q120.61500000000001 -4.108749999999986 120.61500000000001 -4.108749999999986 Q120.61500000000001 -4.108749999999986 120.61500000000001 -4.108749999999986 V-91.50625 Q120.61500000000001 -91.50625 120.61500000000001 -91.50625 Q120.61500000000001 -91.50625 120.61500000000001 -91.50625 H52.5675 Q52.5675 -91.50625 52.5675 -91.50625 Q52.5675 -91.50625 52.5675 -91.50625 V-4.108749999999986 Q52.5675 -4.108749999999986 52.5675 -4.108749999999986 Q52.5675 -4.108749999999986 52.5675 -4.108749999999986 Z"/></g><g id="Semibold-L" transform="matrix(1 0 0 1 1970.27 1556)"><path d="M28.2958275 33.028092500000014 Q23.0165025 33.028092500000014 19.22358 29.23517000000001 Q15.4306575 25.442247500000008 15.4306575 20.162922500000036 V-76.25054874999998 H28.2958275 V20.162922500000036 Q28.2958275 20.162922500000036 28.2958275 20.162922500000036 Q28.2958275 20.162922500000036 28.2958275 20.162922500000036 H103.90804874999999 V33.028092500000014 H28.2958275 Z M50.744730000000004 10.487922500000025 Q45.50297625 10.487922500000025 41.7369825 6.721767500000027 Q37.970827500000006 2.95577375000002 37.970827500000006 -2.285979999999981 V-90.94542249999998 Q37.970827500000006 -96.22474749999998 41.7369825 -100.01766999999998 Q45.50297625 -103.81059249999998 50.744730000000004 -103.81059249999998 H120.0541725 Q125.3334975 -103.81059249999998 129.12642 -100.01766999999998 Q132.9193425 -96.22474749999998 132.9193425 -90.94542249999998 V-2.285979999999981 Q132.9193425 2.95577375000002 129.12642 6.721767500000027 Q125.3334975 10.487922500000025 120.0541725 10.487922500000025 H50.744730000000004 Z M50.744730000000004 -2.285979999999981 H120.0541725 Q120.0541725 -2.285979999999981 120.0541725 -2.285979999999981 Q120.0541725 -2.285979999999981 120.0541725 -2.285979999999981 V-90.94542249999998 Q120.0541725 -90.94542249999998 120.0541725 -90.94542249999998 Q120.0541725 -90.94542249999998 120.0541725 -90.94542249999998 H50.744730000000004 Q50.744730000000004 -90.94542249999998 50.744730000000004 -90.94542249999998 Q50.744730000000004 -90.94542249999998 50.744730000000004 -90.94542249999998 V-2.285979999999981 Q50.744730000000004 -2.285979999999981 50.744730000000004 -2.285979999999981 Q50.744730000000004 -2.285979999999981 50.744730000000004 -2.285979999999981 Z"/></g><g id="Medium-L" transform="matrix(1 0 0 1 1674.31 1556)"><path d="M28.71652875 30.766883750000034 Q24.25022625 30.766883750000034 20.97104625 27.48770375000001 Q17.69186625 24.208523750000012 17.69186625 19.74222125000003 V-77.14451874999997 H28.71652875 V19.74222125000003 Q28.71652875 19.74222125000003 28.71652875 19.74222125000003 Q28.71652875 19.74222125000003 28.71652875 19.74222125000003 H104.80201874999999 V30.766883750000034 H28.71652875 Z M49.3776525 10.067221250000017 Q44.92731375 10.067221250000017 41.65942125 6.799328750000029 Q38.39152875 3.531436250000013 38.39152875 -0.9189024999999731 V-90.52472124999998 Q38.39152875 -94.99102374999998 41.65942125 -98.27020374999998 Q44.92731375 -101.54938374999998 49.3776525 -101.54938374999998 H119.63347125 Q124.09977375 -101.54938374999998 127.37895375000001 -98.27020374999998 Q130.65813375000002 -94.99102374999998 130.65813375000002 -90.52472124999998 V-0.9189024999999731 Q130.65813375000002 3.531436250000013 127.37895375000001 6.799328750000029 Q124.09977375 10.067221250000017 119.63347125 10.067221250000017 H49.3776525 Z M49.3776525 -0.9189024999999731 H119.63347125 Q119.63347125 -0.9189024999999731 119.63347125 -0.9189024999999731 Q119.63347125 -0.9189024999999731 119.63347125 -0.9189024999999731 V-90.52472124999998 Q119.63347125 -90.52472124999998 119.63347125 -90.52472124999998 Q119.63347125 -90.52472124999998 119.63347125 -90.52472124999998 H49.3776525 Q49.3776525 -90.52472124999998 49.3776525 -90.52472124999998 Q49.3776525 -90.52472124999998 49.3776525 -90.52472124999998 V-0.9189024999999731 Q49.3776525 -0.9189024999999731 49.3776525 -0.9189024999999731 Q49.3776525 -0.9189024999999731 49.3776525 -0.9189024999999731 Z"/></g><g id="Regular-L" transform="matrix(1 0 0 1 1378.56 1556)"><path d="M29.025000000000002 29.108750000000015 Q25.155 29.108750000000015 22.2525 26.20625000000001 Q19.35 23.303750000000008 19.35 19.433750000000032 V-77.79999999999998 H29.025000000000002 V19.433750000000032 Q29.025000000000002 19.433750000000032 29.025000000000002 19.433750000000032 Q29.025000000000002 19.433750000000032 29.025000000000002 19.433750000000032 H105.4575 V29.108750000000015 H29.025000000000002 Z M48.375 9.75875000000002 Q44.505 9.75875000000002 41.6025 6.856250000000017 Q38.7 3.9537500000000136 38.7 0.0837500000000091 V-90.21624999999997 Q38.7 -94.08624999999998 41.6025 -96.98874999999998 Q44.505 -99.89124999999999 48.375 -99.89124999999999 H119.325 Q123.19500000000001 -99.89124999999999 126.0975 -96.98874999999998 Q129.0 -94.08624999999998 129.0 -90.21624999999997 V0.0837500000000091 Q129.0 3.9537500000000136 126.0975 6.856250000000017 Q123.19500000000001 9.75875000000002 119.325 9.75875000000002 H48.375 Z M48.375 0.0837500000000091 H119.325 Q119.325 0.0837500000000091 119.325 0.0837500000000091 Q119.325 0.0837500000000091 119.325 0.0837500000000091 V-90.21624999999997 Q119.325 -90.21624999999997 119.325 -90.21624999999997 Q119.325 -90.21624999999997 119.325 -90.21624999999997 H48.375 Q48.375 -90.21624999999997 48.375 -90.21624999999997 Q48.375 -90.21624999999997 48.375 -90.21624999999997 V0.0837500000000091 Q48.375 0.0837500000000091 48.375 0.0837500000000091 Q48.375 0.0837500000000091 48.375 0.0837500000000091 Z"/></g><g id="Light-L" transform="matrix(1 0 0 1 1082.77 1556)"><path d="M34.731153750000004 24.705012500000038 Q30.9371025 24.705012500000038 28.182791249999998 21.950701250000037 Q25.42831875 19.196228750000017 25.42831875 15.402177500000022 V-71.53559874999999 H32.746488750000005 V15.402177500000022 Q32.746488750000005 16.146507500000013 33.366656250000005 16.76667500000002 Q33.98682375 17.38700375000002 34.731153750000004 17.38700375000002 H101.23984500000002 V24.705012500000038 H34.731153750000004 Z M52.592655 6.843672500000025 Q48.798603750000005 6.843672500000025 46.04413125000001 4.089200000000034 Q43.28982 1.3347275000000138 43.28982 -2.4591624999999766 V-85.31634624999998 Q43.28982 -89.11039749999998 46.04413125000001 -91.86486999999998 Q48.798603750000005 -94.61918124999998 52.592655 -94.61918124999998 H116.09983875 Q119.89372875000001 -94.61918124999998 122.64820125000001 -91.86486999999998 Q125.40267375 -89.11039749999998 125.40267375 -85.31634624999998 V-2.4591624999999766 Q125.40267375 1.3347275000000138 122.64820125000001 4.089200000000034 Q119.89372875000001 6.843672500000025 116.09983875 6.843672500000025 H52.592655 Z M52.592655 -0.47449749999998403 H116.09983875 Q116.8440075 -0.47449749999998403 117.46433625 -1.0946649999999778 Q118.08450375000001 -1.7149937499999766 118.08450375000001 -2.4591624999999766 V-85.31634624999998 Q118.08450375000001 -86.06067624999997 117.46433625 -86.68084374999998 Q116.8440075 -87.30117249999998 116.09983875 -87.30117249999998 H52.592655 Q51.848325 -87.30117249999998 51.2281575 -86.68084374999998 Q50.607828749999996 -86.06067624999997 50.607828749999996 -85.31634624999998 V-2.4591624999999766 Q50.607828749999996 -1.7149937499999766 51.2281575 -1.0946649999999778 Q51.848325 -0.47449749999998403 52.592655 -0.47449749999998403 Z"/></g><g id="Thin-L" transform="matrix(1 0 0 1 787.282 1556)"><path d="M40.43650125 20.302081250000015 Q36.718398750000006 20.302081250000015 34.112115 17.695636250000007 Q31.50567 15.089352500000018 31.50567 11.371250000000032 V-65.27216499999997 H36.4673325 V11.371250000000032 Q36.4673325 12.859748750000023 37.7076675 14.10008375000001 Q38.9480025 15.340580000000017 40.43650125 15.340580000000017 H97.02299625 V20.302081250000015 H40.43650125 Z M56.809503750000005 3.9289175000000114 Q53.0915625 3.9289175000000114 50.4851175 1.3226337500000227 Q47.87883375 -1.2838112499999852 47.87883375 -5.001752499999981 V-80.41724874999998 Q47.87883375 -84.13535124999999 50.4851175 -86.74163499999997 Q53.0915625 -89.34807999999998 56.809503750000005 -89.34807999999998 H112.875 Q116.5931025 -89.34807999999998 119.19938625 -86.74163499999997 Q121.80583125 -84.13535124999999 121.80583125 -80.41724874999998 V-5.001752499999981 Q121.80583125 -1.2838112499999852 119.19938625 1.3226337500000227 Q116.5931025 3.9289175000000114 112.875 3.9289175000000114 H56.809503750000005 Z M56.809503750000005 -1.0325837499999864 H112.875 Q114.36349875 -1.0325837499999864 115.60383375 -2.272918749999988 Q116.84416875000001 -3.5134149999999806 116.84416875000001 -5.001752499999981 V-80.41724874999998 Q116.84416875000001 -81.90574749999999 115.60383375 -83.14608249999998 Q114.36349875 -84.3864175 112.875 -84.3864175 H56.809503750000005 Q55.321166250000005 -84.3864175 54.080670000000005 -83.14608249999998 Q52.840335 -81.90574749999999 52.840335 -80.41724874999998 V-5.001752499999981 Q52.840335 -3.5134149999999806 54.080670000000005 -2.272918749999988 Q55.321166250000005 -1.0325837499999864 56.809503750000005 -1.0325837499999864 Z"/></g><g id="Ultralight-L" transform="matrix(1 0 0 1 491.205 1556)"><path d="M43.86 17.660000000000025 Q40.18753125 17.660000000000025 37.67009625 15.142565000000019 Q35.1525 12.624968750000022 35.1525 8.952500000000015 V-61.51374999999999 H38.7 V8.952500000000015 Q38.7 10.887500000000017 40.3125 12.500000000000028 Q41.925000000000004 14.112500000000011 43.86 14.112500000000011 H94.4925 V17.660000000000025 H43.86 Z M59.34 2.180000000000007 Q55.66753125 2.180000000000007 53.149935000000006 -0.33743499999997084 Q50.6325 -2.855031249999982 50.6325 -6.527499999999975 V-77.47749999999999 Q50.6325 -81.14996874999997 53.149935000000006 -83.66756499999998 Q55.66753125 -86.18499999999997 59.34 -86.18499999999997 H110.94 Q114.61246875 -86.18499999999997 117.130065 -83.66756499999998 Q119.64750000000001 -81.14996874999997 119.64750000000001 -77.47749999999999 V-6.527499999999975 Q119.64750000000001 -2.855031249999982 117.130065 -0.33743499999997084 Q114.61246875 2.180000000000007 110.94 2.180000000000007 H59.34 Z M59.34 -1.3674999999999784 H110.94 Q112.875 -1.3674999999999784 114.4875 -2.9799999999999756 Q116.10000000000001 -4.592499999999987 116.10000000000001 -6.527499999999975 V-77.47749999999999 Q116.10000000000001 -79.4125 114.4875 -81.02499999999998 Q112.875 -82.63749999999999 110.94 -82.63749999999999 H59.34 Q57.405 -82.63749999999999 55.792500000000004 -81.02499999999998 Q54.18 -79.4125 54.18 -77.47749999999999 V-6.527499999999975 Q54.18 -4.592499999999987 55.792500000000004 -2.9799999999999756 Q57.405 -1.3674999999999784 59.34 -1.3674999999999784 Z"/></g><g id="Bold-M" transform="matrix(1 0 0 1 2281.8 1126)"><path d="M23.625 21.89500000000001 Q17.0 21.89500000000001 12.4375 17.33250000000001 Q7.875 12.77000000000001 7.875 6.14500000000001 V-62.35499999999999 H23.625 V6.14500000000001 Q23.625 6.14500000000001 23.625 6.14500000000001 Q23.625 6.14500000000001 23.625 6.14500000000001 H77.125 V21.89500000000001 H23.625 Z M49.375 -3.8549999999999898 Q42.75 -3.8549999999999898 38.1875 -8.41749999999999 Q33.625 -12.97999999999999 33.625 -19.60499999999999 V-76.60499999999999 Q33.625 -83.22999999999999 38.1875 -87.79249999999999 Q42.75 -92.35499999999999 49.375 -92.35499999999999 H91.375 Q98.0 -92.35499999999999 102.5625 -87.79249999999999 Q107.125 -83.22999999999999 107.125 -76.60499999999999 V-19.60499999999999 Q107.125 -12.97999999999999 102.5625 -8.41749999999999 Q98.0 -3.8549999999999898 91.375 -3.8549999999999898 H49.375 Z M49.375 -19.60499999999999 H91.375 Q91.375 -19.60499999999999 91.375 -19.60499999999999 Q91.375 -19.60499999999999 91.375 -19.60499999999999 V-76.60499999999999 Q91.375 -76.60499999999999 91.375 -76.60499999999999 Q91.375 -76.60499999999999 91.375 -76.60499999999999 H49.375 Q49.375 -76.60499999999999 49.375 -76.60499999999999 Q49.375 -76.60499999999999 49.375 -76.60499999999999 V-19.60499999999999 Q49.375 -19.60499999999999 49.375 -19.60499999999999 Q49.375 -19.60499999999999 49.375 -19.60499999999999 Z"/></g><g id="Semibold-M" transform="matrix(1 0 0 1 1985.97 1126)"><path d="M24.22275 18.797500000000014 Q18.684625 18.797500000000014 14.828625 14.941375000000008 Q10.972625 11.085375000000013 10.972625 5.547250000000005 V-63.60487499999999 H24.22275 V5.547250000000005 Q24.22275 5.547250000000005 24.22275 5.547250000000005 Q24.22275 5.547250000000005 24.22275 5.547250000000005 H78.374875 V18.797500000000014 H24.22275 Z M47.473 -4.452749999999995 Q41.934875 -4.452749999999995 38.07875 -8.30874999999999 Q34.22275 -12.164874999999995 34.22275 -17.70299999999999 V-76.00724999999998 Q34.22275 -81.54537499999999 38.07875 -85.40137499999999 Q41.934875 -89.257375 47.473 -89.257375 H90.77725 Q96.315375 -89.257375 100.171375 -85.40137499999999 Q104.027375 -81.54537499999999 104.027375 -76.00724999999998 V-17.70299999999999 Q104.027375 -12.164874999999995 100.171375 -8.30874999999999 Q96.315375 -4.452749999999995 90.77725 -4.452749999999995 H47.473 Z M47.473 -17.70299999999999 H90.77725 Q90.77725 -17.70299999999999 90.77725 -17.70299999999999 Q90.77725 -17.70299999999999 90.77725 -17.70299999999999 V-76.00724999999998 Q90.77725 -76.00724999999998 90.77725 -76.00724999999998 Q90.77725 -76.00724999999998 90.77725 -76.00724999999998 H47.473 Q47.473 -76.00724999999998 47.473 -76.00724999999998 Q47.473 -76.00724999999998 47.473 -76.00724999999998 V-17.70299999999999 Q47.473 -17.70299999999999 47.473 -17.70299999999999 Q47.473 -17.70299999999999 47.473 -17.70299999999999 Z"/></g><g id="Medium-M" transform="matrix(1 0 0 1 1689.91 1126)"><path d="M24.67125 16.473875000000007 Q19.948375 16.473875000000007 16.62225 13.147750000000016 Q13.296125 9.821625000000012 13.296125 5.09875000000001 V-64.54249999999999 H24.67125 V5.09875000000001 Q24.67125 5.09875000000001 24.67125 5.09875000000001 Q24.67125 5.09875000000001 24.67125 5.09875000000001 H79.3125 V16.473875000000007 H24.67125 Z M46.04625 -4.90124999999999 Q41.323375 -4.90124999999999 37.99725 -8.227249999999984 Q34.67125 -11.553374999999988 34.67125 -16.27624999999999 V-75.55874999999999 Q34.67125 -80.28162499999999 37.99725 -83.60774999999998 Q41.323375 -86.93387499999999 46.04625 -86.93387499999999 H90.32875 Q95.051625 -86.93387499999999 98.37775 -83.60774999999998 Q101.703875 -80.28162499999999 101.703875 -75.55874999999999 V-16.27624999999999 Q101.703875 -11.553374999999988 98.37775 -8.227249999999984 Q95.051625 -4.90124999999999 90.32875 -4.90124999999999 H46.04625 Z M46.04625 -16.27624999999999 H90.32875 Q90.32875 -16.27624999999999 90.32875 -16.27624999999999 Q90.32875 -16.27624999999999 90.32875 -16.27624999999999 V-75.55874999999999 Q90.32875 -75.55874999999999 90.32875 -75.55874999999999 Q90.32875 -75.55874999999999 90.32875 -75.55874999999999 H46.04625 Q46.04625 -75.55874999999999 46.04625 -75.55874999999999 Q46.04625 -75.55874999999999 46.04625 -75.55874999999999 V-16.27624999999999 Q46.04625 -16.27624999999999 46.04625 -16.27624999999999 Q46.04625 -16.27624999999999 46.04625 -16.27624999999999 Z"/></g><g id="Regular-M" transform="matrix(1 0 0 1 1394.06 1126)"><path d="M25.0 14.77000000000001 Q20.875 14.77000000000001 17.9375 11.83250000000001 Q15.0 8.89500000000001 15.0 4.77000000000001 V-65.22999999999999 H25.0 V4.77000000000001 Q25.0 4.77000000000001 25.0 4.77000000000001 Q25.0 4.77000000000001 25.0 4.77000000000001 H80.0 V14.77000000000001 H25.0 Z M45.0 -5.22999999999999 Q40.875 -5.22999999999999 37.9375 -8.16749999999999 Q35.0 -11.10499999999999 35.0 -15.22999999999999 V-75.22999999999999 Q35.0 -79.35499999999999 37.9375 -82.29249999999999 Q40.875 -85.22999999999999 45.0 -85.22999999999999 H90.0 Q94.125 -85.22999999999999 97.0625 -82.29249999999999 Q100.0 -79.35499999999999 100.0 -75.22999999999999 V-15.22999999999999 Q100.0 -11.10499999999999 97.0625 -8.16749999999999 Q94.125 -5.22999999999999 90.0 -5.22999999999999 H45.0 Z M45.0 -15.22999999999999 H90.0 Q90.0 -15.22999999999999 90.0 -15.22999999999999 Q90.0 -15.22999999999999 90.0 -15.22999999999999 V-75.22999999999999 Q90.0 -75.22999999999999 90.0 -75.22999999999999 Q90.0 -75.22999999999999 90.0 -75.22999999999999 H45.0 Q45.0 -75.22999999999999 45.0 -75.22999999999999 Q45.0 -75.22999999999999 45.0 -75.22999999999999 V-15.22999999999999 Q45.0 -15.22999999999999 45.0 -15.22999999999999 Q45.0 -15.22999999999999 45.0 -15.22999999999999 Z"/></g><g id="Light-M" transform="matrix(1 0 0 1 1098.18 1126)"><path d="M28.75025 11.308250000000015 Q24.961875 11.308250000000015 22.336875 8.683250000000015 Q19.711875 6.058250000000015 19.711875 2.269875000000013 V-61.19124999999999 H27.21175 V2.269875000000013 Q27.21175 2.8467500000000143 27.6925 3.327625000000012 Q28.17325 3.8083750000000123 28.75025 3.8083750000000123 H77.211375 V11.308250000000015 H28.75025 Z M46.250125 -6.191624999999988 Q42.461625 -6.191624999999988 39.836625 -8.816624999999988 Q37.21175 -11.441624999999988 37.21175 -15.22999999999999 V-72.152875 Q37.21175 -75.94125 39.836625 -78.56625 Q42.461625 -81.19125 46.250125 -81.19125 H88.173 Q91.961375 -81.19125 94.586375 -78.56625 Q97.211375 -75.94125 97.211375 -72.152875 V-15.22999999999999 Q97.211375 -11.441624999999988 94.586375 -8.816624999999988 Q91.961375 -6.191624999999988 88.173 -6.191624999999988 H46.250125 Z M46.250125 -13.691374999999994 H88.173 Q88.749875 -13.691374999999994 89.23075 -14.172249999999991 Q89.7115 -14.652999999999992 89.7115 -15.22999999999999 V-72.152875 Q89.7115 -72.72987499999999 89.23075 -73.210625 Q88.749875 -73.691375 88.173 -73.691375 H46.250125 Q45.673125 -73.691375 45.192375 -73.210625 Q44.7115 -72.72987499999999 44.7115 -72.152875 V-15.22999999999999 Q44.7115 -14.652999999999992 45.192375 -14.172249999999991 Q45.673125 -13.691374999999994 46.250125 -13.691374999999994 Z"/></g><g id="Thin-M" transform="matrix(1 0 0 1 802.565 1126)"><path d="M32.5 7.847000000000008 Q29.048 7.847000000000008 26.7355 5.534500000000008 Q24.423 3.2220000000000084 24.423 -0.22999999999998977 V-57.15312499999999 H29.423 V-0.22999999999998977 Q29.423 0.9238750000000095 30.384625 1.8853750000000105 Q31.346125 2.8468750000000114 32.5 2.8468750000000114 H74.423125 V7.847000000000008 H32.5 Z M47.5 -7.153124999999989 Q44.048 -7.153124999999989 41.7355 -9.465624999999989 Q39.423 -11.778124999999989 39.423 -15.22999999999999 V-69.07624999999999 Q39.423 -72.52812499999999 41.7355 -74.84062499999999 Q44.048 -77.15312499999999 47.5 -77.15312499999999 H86.346125 Q89.798125 -77.15312499999999 92.110625 -74.84062499999999 Q94.423125 -72.52812499999999 94.423125 -69.07624999999999 V-15.22999999999999 Q94.423125 -11.778124999999989 92.110625 -9.465624999999989 Q89.798125 -7.153124999999989 86.346125 -7.153124999999989 H47.5 Z M47.5 -12.153124999999989 H86.346125 Q87.5 -12.153124999999989 88.4615 -13.11462499999999 Q89.423125 -14.07612499999999 89.423125 -15.22999999999999 V-69.07624999999999 Q89.423125 -70.22999999999999 88.4615 -71.19162499999999 Q87.5 -72.15312499999999 86.346125 -72.15312499999999 H47.5 Q46.346125 -72.15312499999999 45.384625 -71.19162499999999 Q44.423125 -70.22999999999999 44.423125 -69.07624999999999 V-15.22999999999999 Q44.423125 -14.07612499999999 45.384625 -13.11462499999999 Q46.346125 -12.153124999999989 47.5 -12.153124999999989 Z"/></g><g id="Ultralight-M" transform="matrix(1 0 0 1 506.415 1126)"><path d="M34.75 5.77000000000001 Q31.5 5.77000000000001 29.375 3.6450000000000102 Q27.25 1.5200000000000102 27.25 -1.7299999999999898 V-54.72999999999999 H30.75 V-1.7299999999999898 Q30.75 -0.22999999999998977 32.0 1.0200000000000102 Q33.25 2.2700000000000102 34.75 2.2700000000000102 H72.75 V5.77000000000001 H34.75 Z M48.25 -7.72999999999999 Q45.0 -7.72999999999999 42.875 -9.85499999999999 Q40.75 -11.97999999999999 40.75 -15.22999999999999 V-67.22999999999999 Q40.75 -70.47999999999999 42.875 -72.60499999999999 Q45.0 -74.72999999999999 48.25 -74.72999999999999 H85.25 Q88.5 -74.72999999999999 90.625 -72.60499999999999 Q92.75 -70.47999999999999 92.75 -67.22999999999999 V-15.22999999999999 Q92.75 -11.97999999999999 90.625 -9.85499999999999 Q88.5 -7.72999999999999 85.25 -7.72999999999999 H48.25 Z M48.25 -11.22999999999999 H85.25 Q86.75 -11.22999999999999 88.0 -12.47999999999999 Q89.25 -13.72999999999999 89.25 -15.22999999999999 V-67.22999999999999 Q89.25 -68.72999999999999 88.0 -69.97999999999999 Q86.75 -71.22999999999999 85.25 -71.22999999999999 H48.25 Q46.75 -71.22999999999999 45.5 -69.97999999999999 Q44.25 -68.72999999999999 44.25 -67.22999999999999 V-15.22999999999999 Q44.25 -13.72999999999999 45.5 -12.47999999999999 Q46.75 -11.22999999999999 48.25 -11.22999999999999 Z"/></g><g id="Bold-S" transform="matrix(1 0 0 1 2294.23 696)"><path d="M20.218125 8.263625000000005 Q15.316462500000002 8.263625000000005 11.948418750000002 4.895581250000006 Q8.580375 1.5275375000000082 8.580375 -3.3741249999999923 V-56.63162499999999 H20.218125 V-3.3741249999999923 Q20.218125 -3.3741249999999923 20.218125 -3.3741249999999923 Q20.218125 -3.3741249999999923 20.218125 -3.3741249999999923 H64.007625 V8.263625000000005 H20.218125 Z M38.956875000000004 -10.475124999999991 Q34.0552125 -10.475124999999991 30.687168749999998 -13.84316874999999 Q27.319125 -17.211212499999988 27.319125 -22.11287499999999 V-67.08587499999999 Q27.319125 -71.9875375 30.687168749999998 -75.35558125 Q34.0552125 -78.723625 38.956875000000004 -78.723625 H74.461875 Q79.3635375 -78.723625 82.73158125 -75.35558125 Q86.099625 -71.9875375 86.099625 -67.08587499999999 V-22.11287499999999 Q86.099625 -17.211212499999988 82.73158125 -13.84316874999999 Q79.3635375 -10.475124999999991 74.461875 -10.475124999999991 H38.956875000000004 Z M38.956875000000004 -22.11287499999999 H74.461875 Q74.461875 -22.11287499999999 74.461875 -22.11287499999999 Q74.461875 -22.11287499999999 74.461875 -22.11287499999999 V-67.08587499999999 Q74.461875 -67.08587499999999 74.461875 -67.08587499999999 Q74.461875 -67.08587499999999 74.461875 -67.08587499999999 H38.956875000000004 Q38.956875000000004 -67.08587499999999 38.956875000000004 -67.08587499999999 Q38.956875000000004 -67.08587499999999 38.956875000000004 -67.08587499999999 V-22.11287499999999 Q38.956875000000004 -22.11287499999999 38.956875000000004 -22.11287499999999 Q38.956875000000004 -22.11287499999999 38.956875000000004 -22.11287499999999 Z"/></g><g id="Semibold-S" transform="matrix(1 0 0 1 1998.1 696)"><path d="M20.68974975 5.819598875000011 Q16.645631625 5.819598875000011 13.835016375 3.0089836250000133 Q11.024401125 0.19836837500000115 11.024401125 -3.845749749999996 V-57.617776375 H20.68974975 V-3.845749749999996 Q20.68974975 -3.845749749999996 20.68974975 -3.845749749999996 Q20.68974975 -3.845749749999996 20.68974975 -3.845749749999996 H64.99377637500001 V5.819598875000011 H20.68974975 Z M37.456197 -10.946749749999995 Q33.412078875 -10.946749749999995 30.601364999999998 -13.757463624999986 Q27.79074975 -16.568078874999998 27.79074975 -20.612196999999995 V-66.61425025 Q27.79074975 -70.658368375 30.601364999999998 -73.46898362499999 Q33.412078875 -76.27959887499999 37.456197 -76.27959887499999 H73.99025025 Q78.034368375 -76.27959887499999 80.844983625 -73.46898362499999 Q83.65559887500001 -70.658368375 83.65559887500001 -66.61425025 V-20.612196999999995 Q83.65559887500001 -16.568078874999998 80.844983625 -13.757463624999986 Q78.034368375 -10.946749749999995 73.99025025 -10.946749749999995 H37.456197 Z M37.456197 -20.612196999999995 H73.99025025 Q73.99025025 -20.612196999999995 73.99025025 -20.612196999999995 Q73.99025025 -20.612196999999995 73.99025025 -20.612196999999995 V-66.61425025 Q73.99025025 -66.61425025 73.99025025 -66.61425025 Q73.99025025 -66.61425025 73.99025025 -66.61425025 H37.456197 Q37.456197 -66.61425025 37.456197 -66.61425025 Q37.456197 -66.61425025 37.456197 -66.61425025 V-20.612196999999995 Q37.456197 -20.612196999999995 37.456197 -20.612196999999995 Q37.456197 -20.612196999999995 37.456197 -20.612196999999995 Z"/></g><g id="Medium-S" transform="matrix(1 0 0 1 1701.85 696)"><path d="M21.043616250000003 3.9863573750000114 Q17.642730375 3.9863573750000114 15.2501865 1.5938135000000102 Q12.857642625 -0.798730374999991 12.857642625 -4.199616249999991 V-58.35756249999999 H21.043616250000003 V-4.199616249999991 Q21.043616250000003 -4.199616249999991 21.043616250000003 -4.199616249999991 Q21.043616250000003 -4.199616249999991 21.043616250000003 -4.199616249999991 H65.7335625 V3.9863573750000114 H21.043616250000003 Z M36.33049125 -11.30061624999999 Q32.929605375 -11.30061624999999 30.5370615 -13.693061499999999 Q28.144616250000002 -16.085605374999986 28.144616250000002 -19.48649125 V-66.26038374999999 Q28.144616250000002 -69.66126962499999 30.5370615 -72.05381349999999 Q32.929605375 -74.44635737499999 36.33049125 -74.44635737499999 H73.63638375000001 Q77.03726962500001 -74.44635737499999 79.4298135 -72.05381349999999 Q81.822357375 -69.66126962499999 81.822357375 -66.26038374999999 V-19.48649125 Q81.822357375 -16.085605374999986 79.4298135 -13.693061499999999 Q77.03726962500001 -11.30061624999999 73.63638375000001 -11.30061624999999 H36.33049125 Z M36.33049125 -19.48649125 H73.63638375000001 Q73.63638375000001 -19.48649125 73.63638375000001 -19.48649125 Q73.63638375000001 -19.48649125 73.63638375000001 -19.48649125 V-66.26038374999999 Q73.63638375000001 -66.26038374999999 73.63638375000001 -66.26038374999999 Q73.63638375000001 -66.26038374999999 73.63638375000001 -66.26038374999999 H36.33049125 Q36.33049125 -66.26038374999999 36.33049125 -66.26038374999999 Q36.33049125 -66.26038374999999 36.33049125 -66.26038374999999 V-19.48649125 Q36.33049125 -19.48649125 36.33049125 -19.48649125 Q36.33049125 -19.48649125 36.33049125 -19.48649125 Z"/></g><g id="Regular-S" transform="matrix(1 0 0 1 1405.73 696)"><path d="M21.303 2.64200000000001 Q18.3738375 2.64200000000001 16.287918750000003 0.5560812500000054 Q14.202 -1.529837499999985 14.202 -4.458999999999989 V-58.9 H21.303 V-4.458999999999989 Q21.303 -4.458999999999989 21.303 -4.458999999999989 Q21.303 -4.458999999999989 21.303 -4.458999999999989 H66.276 V2.64200000000001 H21.303 Z M35.505 -11.559999999999988 Q32.575837500000006 -11.559999999999988 30.489918749999998 -13.645918749999993 Q28.404 -15.731837499999983 28.404 -18.660999999999987 V-66.00099999999999 Q28.404 -68.9301625 30.489918749999998 -71.01608125 Q32.575837500000006 -73.102 35.505 -73.102 H73.37700000000001 Q76.30616250000001 -73.102 78.39208125 -71.01608125 Q80.47800000000001 -68.9301625 80.47800000000001 -66.00099999999999 V-18.660999999999987 Q80.47800000000001 -15.731837499999983 78.39208125 -13.645918749999993 Q76.30616250000001 -11.559999999999988 73.37700000000001 -11.559999999999988 H35.505 Z M35.505 -18.660999999999987 H73.37700000000001 Q73.37700000000001 -18.660999999999987 73.37700000000001 -18.660999999999987 Q73.37700000000001 -18.660999999999987 73.37700000000001 -18.660999999999987 V-66.00099999999999 Q73.37700000000001 -66.00099999999999 73.37700000000001 -66.00099999999999 Q73.37700000000001 -66.00099999999999 73.37700000000001 -66.00099999999999 H35.505 Q35.505 -66.00099999999999 35.505 -66.00099999999999 Q35.505 -66.00099999999999 35.505 -66.00099999999999 V-18.660999999999987 Q35.505 -18.660999999999987 35.505 -18.660999999999987 Q35.505 -18.660999999999987 35.505 -18.660999999999987 Z"/></g><g id="Light-S" transform="matrix(1 0 0 1 1109.75 696)"><path d="M24.261947250000002 -0.08932074999998463 Q21.598381875 -0.08932074999998463 19.759025625 -1.9286769999999933 Q17.919669375 -3.768033250000002 17.919669375 -6.431598624999992 V-55.71342625 H23.04807075 V-6.431598624999992 Q23.04807075 -5.976444249999986 23.4273825 -5.597033874999994 Q23.80669425 -5.2177221249999945 24.261947250000002 -5.2177221249999945 H64.07577487500001 V-0.08932074999998463 H24.261947250000002 Z M36.491348625 -12.318722124999994 Q33.827684625 -12.318722124999994 31.988328375000002 -14.158078374999988 Q30.149070750000003 -15.99733599999999 30.149070750000003 -18.660999999999987 V-63.573148374999995 Q30.149070750000003 -66.23671374999999 31.988328375000002 -68.07606999999999 Q33.827684625 -69.91542625 36.491348625 -69.91542625 H71.935497 Q74.599062375 -69.91542625 76.43841862500001 -68.07606999999999 Q78.277774875 -66.23671374999999 78.277774875 -63.573148374999995 V-18.660999999999987 Q78.277774875 -15.99733599999999 76.43841862500001 -14.158078374999988 Q74.599062375 -12.318722124999994 71.935497 -12.318722124999994 H36.491348625 Z M36.491348625 -17.447024874999997 H71.935497 Q72.390651375 -17.447024874999997 72.77006175000001 -17.82643524999999 Q73.14937350000001 -18.205746999999988 73.14937350000001 -18.660999999999987 V-63.573148374999995 Q73.14937350000001 -64.028401375 72.77006175000001 -64.407713125 Q72.390651375 -64.78702487499999 71.935497 -64.78702487499999 H36.491348625 Q36.036095625 -64.78702487499999 35.656783875 -64.407713125 Q35.2773735 -64.028401375 35.2773735 -63.573148374999995 V-18.660999999999987 Q35.2773735 -18.205746999999988 35.656783875 -17.82643524999999 Q36.036095625 -17.447024874999997 36.491348625 -17.447024874999997 Z"/></g><g id="Thin-S" transform="matrix(1 0 0 1 814.015 696)"><path d="M27.2205 -2.820246999999995 Q24.8223345 -2.820246999999995 23.22954075 -4.413040749999993 Q21.636747 -6.005834499999992 21.636747 -8.403999999999996 V-52.527345624999995 H24.792747 V-8.403999999999996 Q24.792747 -7.493592624999991 25.551469125 -6.734969124999992 Q26.310092625000003 -5.976345624999993 27.2205 -5.976345624999993 H61.875845625000004 V-2.820246999999995 H27.2205 Z M37.4775 -13.077345624999992 Q35.0793345 -13.077345624999992 33.48654075 -14.67013937499999 Q31.893747 -16.26293312499999 31.893747 -18.660999999999987 V-61.14569125 Q31.893747 -63.543758125 33.48654075 -65.136551875 Q35.0793345 -66.729345625 37.4775 -66.729345625 H70.49409262500001 Q72.89225812500001 -66.729345625 74.48505187500001 -65.136551875 Q76.07784562500001 -63.543758125 76.07784562500001 -61.14569125 V-18.660999999999987 Q76.07784562500001 -16.26293312499999 74.48505187500001 -14.67013937499999 Q72.89225812500001 -13.077345624999992 70.49409262500001 -13.077345624999992 H37.4775 Z M37.4775 -16.233345625 H70.49409262500001 Q71.4045 -16.233345625 72.1631235 -16.991969124999997 Q72.921845625 -17.750592624999996 72.921845625 -18.660999999999987 V-61.14569125 Q72.921845625 -62.056 72.1631235 -62.81472212499999 Q71.4045 -63.573345624999995 70.49409262500001 -63.573345624999995 H37.4775 Q36.567092625 -63.573345624999995 35.808469125 -62.81472212499999 Q35.049845625 -62.056 35.049845625 -61.14569125 V-18.660999999999987 Q35.049845625 -17.750592624999996 35.808469125 -16.991969124999997 Q36.567092625 -16.233345625 37.4775 -16.233345625 Z"/></g><g id="Ultralight-S" transform="matrix(1 0 0 1 517.792 696)"><path d="M28.99575 -4.458999999999989 Q26.756962500000004 -4.458999999999989 25.31210625 -5.90385624999999 Q23.867250000000002 -7.348712499999991 23.867250000000002 -9.587499999999991 V-50.6155 H25.839750000000002 V-9.587499999999991 Q25.839750000000002 -8.403999999999996 26.826 -7.417749999999998 Q27.812250000000002 -6.4315 28.99575 -6.4315 H60.55575 V-4.458999999999989 H28.99575 Z M38.069250000000004 -13.532499999999999 Q35.8304625 -13.532499999999999 34.38560625 -14.977356249999985 Q32.94075 -16.422212499999986 32.94075 -18.660999999999987 V-59.68899999999999 Q32.94075 -61.927787499999994 34.38560625 -63.372643749999995 Q35.8304625 -64.8175 38.069250000000004 -64.8175 H69.62925 Q71.86803750000001 -64.8175 73.31289375 -63.372643749999995 Q74.75775 -61.927787499999994 74.75775 -59.68899999999999 V-18.660999999999987 Q74.75775 -16.422212499999986 73.31289375 -14.977356249999985 Q71.86803750000001 -13.532499999999999 69.62925 -13.532499999999999 H38.069250000000004 Z M38.069250000000004 -15.504999999999995 H69.62925 Q70.81275000000001 -15.504999999999995 71.799 -16.491249999999994 Q72.78525 -17.477499999999992 72.78525 -18.660999999999987 V-59.68899999999999 Q72.78525 -60.872499999999995 71.799 -61.85875 Q70.81275000000001 -62.845 69.62925 -62.845 H38.069250000000004 Q36.88575 -62.845 35.8995 -61.85875 Q34.913250000000005 -60.872499999999995 34.913250000000005 -59.68899999999999 V-18.660999999999987 Q34.913250000000005 -17.477499999999992 35.8995 -16.491249999999994 Q36.88575 -15.504999999999995 38.069250000000004 -15.504999999999995 Z"/></g></g></svg>